<svg xmlns="http://www.w3.org/2000/svg" width="85" height="85"><g transform="translate(.894 -.894)"><circle cx="41.606" cy="43.394" r="37.902" fill="#1aa1dc" stroke="#056ebb" stroke-width="5"/><path d="M42.5,5A37.5,37.5 0 0 0 42.5,80" fill="#056ebb"/><path d="M41.606 28.154c4.53 0 8.22-3.69 8.22-8.22 0-4.53-3.69-8.22-8.22-8.22-4.53 0-8.22 3.69-8.22 8.22 0 4.53 3.69 8.22 8.22 8.22zm0-13.43c2.88 0 5.22 2.34 5.22 5.22s-2.34 5.22-5.22 5.22-5.22-2.34-5.22-5.22 2.34-5.22 5.22-5.22z" fill="#fff"/><path d="M60.892 27.714c-.23 0-.46.02-.69.05l-14.42 2.03h-8.34l-14.43-2.03c-.23-.03-.46-.05-.69-.05-2.69 0-5.03 2.2-5.44 5.12-.45 3.21 1.57 6.16 4.5 6.57l12.57 1.77v6.36l-7.94 19.16a5.85 5.85 0 000 4.5c.6 1.45 1.73 2.58 3.18 3.18.72.3 1.47.45 2.24.45 2.39 0 4.53-1.42 5.44-3.63l4.74-11.43 4.73 11.43a5.874 5.874 0 007.68 3.18c2.99-1.24 4.42-4.69 3.18-7.68l-7.94-19.17v-6.36l12.57-1.77c1.51-.21 2.85-1.11 3.68-2.48.73-1.19 1.02-2.65.82-4.09-.4-2.9-2.74-5.11-5.44-5.11zm.53 8.72l-15.15 2.13v9.56l8.17 19.72a2.885 2.885 0 01-2.65 3.98c-1.13 0-2.21-.67-2.67-1.78l-7.51-18.12-7.51 18.12a2.893 2.893 0 01-2.67 1.78c-.37 0-.74-.07-1.09-.22a2.897 2.897 0 01-1.56-3.76l8.17-19.72v-9.56l-15.15-2.13c-1.29-.18-2.16-1.61-1.94-3.18.2-1.46 1.29-2.54 2.47-2.54.09 0 .18.01.27.02l14.63 2.06h8.76l14.63-2.06c.09-.01.18-.02.27-.02 1.19 0 2.27 1.08 2.47 2.54.23 1.57-.65 3-1.94 3.18z" fill="#fff"/></g></svg>
