<svg height="44.605" viewBox="-0.239 -0.233 271.279 34" width="361.705" xmlns="http://www.w3.org/2000/svg" xmlns:xlink="http://www.w3.org/1999/xlink"><defs><path d="M4.937 13.736c0-.047-.023-.071-.047-.107-.55-.586-1.363-1.554-1.865-3.503-.275-1.088-.383-2.32-.383-3.431 0-3.144.753-5.344 2.188-6.898.107-.108.107-.132.107-.156 0-.12-.095-.12-.143-.12-.18 0-.825.718-.98.897-1.22 1.447-1.997 3.599-1.997 6.265 0 1.698.3 4.1 1.865 6.121.12.143.897 1.052 1.112 1.052.048 0 .143 0 .143-.12z" id="r"/><path d="M3.646 6.695c0-1.698-.299-4.1-1.865-6.121C1.661.43.885-.478.67-.478c-.06 0-.143.024-.143.12 0 .047.024.083.072.119.574.622 1.35 1.59 1.84 3.49.276 1.089.383 2.32.383 3.432 0 1.207-.107 2.427-.418 3.598-.454 1.674-1.16 2.63-1.77 3.3-.107.108-.107.132-.107.155 0 .096.084.12.143.12.18 0 .837-.73.98-.897 1.22-1.446 1.997-3.598 1.997-6.264z" id="y"/><path d="M4.973 17.801c0-.562 0-1.446-.753-2.415a5.244 5.244 0 00-1.972-1.518c2.33-1.124 2.725-2.845 2.725-3.527V3.455c0-.741 0-2.271 2.32-3.42.095-.047.095-.07.095-.25 0-.251 0-.263-.263-.263-.167 0-.191 0-.502.143-1.183.586-2.355 1.53-2.606 2.989-.036.24-.036.347-.036 1.148v5.523c0 .37 0 .992-.012 1.124-.107 1.255-.837 2.343-2.2 3.096-.19.108-.203.12-.203.311 0 .203.012.215.18.31.8.443 1.948 1.304 2.187 2.798.048.275.048.3.048.43v7.102c0 1.734 1.196 2.87 2.678 3.575.263.131.287.131.466.131.251 0 .263 0 .263-.263 0-.191-.012-.203-.107-.263-.49-.239-2.033-1.016-2.284-2.737-.024-.168-.024-.3-.024-1.017v-6.12z" id="e"/><path d="M5.356-3.826c0-.992-.06-1.96-.49-2.869-.49-.992-1.351-1.255-1.937-1.255-.693 0-1.542.347-1.985 1.339C.61-5.858.49-5.117.49-3.826c0 1.16.084 2.033.514 2.882A2.126 2.126 0 002.917.25c1.04 0 1.638-.622 1.985-1.315.43-.897.454-2.068.454-2.762zM2.917.012c-.382 0-1.16-.215-1.387-1.518C1.4-2.224 1.4-3.132 1.4-3.97c0-.98 0-1.865.191-2.57.203-.801.813-1.172 1.327-1.172.454 0 1.148.275 1.375 1.303.155.681.155 1.626.155 2.439 0 .8 0 1.71-.131 2.439C4.089-.215 3.336.012 2.917.012z" id="o"/><path d="M3.443-7.663c0-.275 0-.287-.239-.287-.287.323-.885.765-2.116.765v.347c.275 0 .873 0 1.53-.311v6.228c0 .43-.036.574-1.088.574h-.37V0c.322-.024 1.482-.024 1.877-.024s1.542 0 1.865.024v-.347H4.53c-1.052 0-1.088-.143-1.088-.574v-6.742z" id="h"/><path d="M5.26-2.008h-.263c-.036.203-.131.86-.25 1.052-.084.107-.766.107-1.125.107H1.411c.323-.275 1.052-1.04 1.363-1.327C4.59-3.85 5.26-4.47 5.26-5.655c0-1.375-1.088-2.295-2.474-2.295s-2.2 1.183-2.2 2.212c0 .61.526.61.562.61.25 0 .562-.18.562-.563 0-.334-.228-.562-.562-.562-.108 0-.132 0-.168.012.227-.813.873-1.362 1.65-1.362 1.016 0 1.638.848 1.638 1.948 0 1.016-.586 1.901-1.267 2.666L.586-.287V0h4.363l.311-2.008z" id="i"/><path d="M2.2-4.292c-.203.012-.251.024-.251.132 0 .12.06.12.275.12h.55c1.016 0 1.47.836 1.47 1.984 0 1.566-.813 1.984-1.399 1.984-.574 0-1.554-.275-1.9-1.064.382.06.729-.155.729-.586a.565.565 0 00-.586-.585c-.287 0-.598.167-.598.621C.49-.622 1.554.251 2.881.251c1.423 0 2.475-1.088 2.475-2.295 0-1.1-.885-1.961-2.032-2.164 1.04-.3 1.71-1.172 1.71-2.104 0-.945-.981-1.638-2.14-1.638-1.196 0-2.081.73-2.081 1.602 0 .478.37.574.55.574.251 0 .538-.18.538-.538 0-.383-.287-.55-.55-.55-.072 0-.096 0-.132.012.455-.813 1.579-.813 1.638-.813.395 0 1.172.18 1.172 1.35 0 .228-.036.897-.383 1.411-.358.526-.765.562-1.088.574l-.358.036z" id="p"/><path d="M3.563-4.316c.597-.323 1.47-.873 1.47-1.877 0-1.04-1.004-1.757-2.104-1.757-1.184 0-2.116.873-2.116 1.96 0 .407.12.813.454 1.22.132.155.144.167.98.753C1.088-3.479.49-2.678.49-1.805.49-.538 1.698.25 2.917.25c1.327 0 2.439-.98 2.439-2.236 0-1.219-.86-1.757-1.793-2.33zM1.937-5.392c-.156-.107-.634-.418-.634-1.004 0-.777.813-1.267 1.614-1.267.86 0 1.626.621 1.626 1.482 0 .73-.526 1.315-1.22 1.698l-1.386-.909zm.562 1.542l1.446.945c.311.203.861.574.861 1.303 0 .909-.92 1.53-1.877 1.53-1.016 0-1.889-.741-1.889-1.733 0-.933.682-1.686 1.459-2.045z" id="q"/><path d="M4.376-3.479c0 2.821-1.256 3.407-1.973 3.407-.287 0-.92-.036-1.22-.454h.072c.084.024.514-.048.514-.49 0-.263-.179-.49-.49-.49s-.502.203-.502.514c0 .74.598 1.243 1.638 1.243 1.494 0 2.94-1.59 2.94-4.184 0-3.216-1.338-4.017-2.39-4.017C1.65-7.95.49-6.85.49-5.272s1.112 2.654 2.308 2.654c.884 0 1.338-.646 1.578-1.255v.394zm-1.53.622c-.754 0-1.077-.61-1.184-.837-.192-.454-.192-1.028-.192-1.566 0-.67 0-1.244.311-1.734.216-.323.538-.67 1.184-.67.681 0 1.028.598 1.148.873.239.586.239 1.602.239 1.782 0 1.004-.455 2.152-1.507 2.152z" id="k"/><path d="M.514-8.165v.346h.24c.86 0 .896.12.896.562v6.348c0 .443-.036.562-.897.562H.514V0H5.01c1.542 0 2.618-1.04 2.618-2.188 0-.968-.872-1.925-2.295-2.08 1.136-.215 1.96-.98 1.96-1.877 0-1.028-1.04-2.02-2.606-2.02H.514zm2.044 3.801V-7.34c0-.395.024-.479.55-.479h1.507c1.195 0 1.626 1.028 1.626 1.674 0 .79-.622 1.781-1.95 1.781H2.559zm.55 4.017c-.526 0-.55-.083-.55-.478v-3.3h2.236c1.148 0 1.745 1.005 1.745 1.925 0 .969-.729 1.853-1.9 1.853h-1.53z" id="c"/><path d="M7.783-2.367c0-.466.048-.526.813-.526v-.347c-.311.024-1.136.024-1.495.024-.382 0-1.422 0-1.745-.024v.347h.37c1.053 0 1.088.143 1.088.574v.765c0 1.363-1.566 1.458-1.877 1.458-.944 0-3.18-.573-3.18-3.993 0-3.455 2.26-3.98 3.097-3.98 1.04 0 2.283.752 2.594 2.869.024.131.024.167.167.167.168 0 .168-.036.168-.275v-2.833c0-.216 0-.275-.12-.275-.071 0-.083.023-.155.143l-.586.944c-.347-.43-1.076-1.087-2.212-1.087C2.546-8.416.646-6.54.646-4.09c0 2.475 1.9 4.34 4.076 4.34.85 0 1.817-.275 2.26-1.04.215.383.61.777.705.777s.096-.072.096-.263v-2.092z" id="b"/><path d="M5.045-4.065C6.23-4.34 7.15-5.093 7.15-6.013c0-1.16-1.35-2.152-3.072-2.152H.502v.346h.24c.86 0 .896.12.896.562v6.348c0 .443-.036.562-.897.562H.502V0c.275-.024 1.255-.024 1.602-.024s1.34 0 1.614.024v-.347H3.48c-.86 0-.897-.12-.897-.562v-3.06H3.97c.466 0 .909.131 1.232.466.406.454.406.705.406 1.53 0 .945 0 1.256.526 1.77.18.18.681.454 1.35.454.933 0 1.089-1.04 1.089-1.291 0-.072 0-.18-.132-.18-.12 0-.12.072-.131.192-.06.717-.407 1.04-.79 1.04-.55 0-.669-.562-.764-1.196a55.579 55.579 0 01-.12-.896c-.084-.598-.131-.98-.49-1.351-.132-.132-.442-.454-1.1-.634zm-1.124-.143H2.582V-7.34c0-.275 0-.419.251-.467.108-.012.467-.012.706-.012.968 0 2.498 0 2.498 1.806 0 1.04-.562 1.805-2.116 1.805z" id="a"/><path d="M4.579-2.774c.263 0 .287 0 .287-.227 0-1.207-.646-2.331-2.092-2.331C1.41-5.332.359-4.101.359-2.618.359-1.04 1.579.12 2.905.12c1.423 0 1.96-1.292 1.96-1.543 0-.071-.059-.12-.13-.12-.096 0-.12.06-.144.12C4.28-.418 3.479-.143 2.977-.143s-1.71-.335-1.71-2.403v-.228H4.58zM1.279-3c.096-1.877 1.148-2.092 1.483-2.092 1.279 0 1.35 1.686 1.363 2.092H1.279z" id="B"/><path d="M2.056-4.806h1.351v-.347H2.032V-6.55c0-1.076.55-1.626 1.04-1.626.096 0 .275.024.419.095a.48.48 0 00-.347.467c0 .275.191.466.466.466.287 0 .479-.191.479-.478 0-.443-.43-.79-1.005-.79-.836 0-1.78.646-1.78 1.866v1.398H.37v.347h.932v3.921c0 .538-.131.538-.908.538V0c.334-.024.992-.024 1.35-.024.323 0 1.172 0 1.447.024v-.347h-.24c-.872 0-.896-.131-.896-.562v-3.897z" id="m"/><path d="M2.08-7.364a.587.587 0 00-.586-.586.574.574 0 00-.573.574c0 .358.286.585.573.585.371 0 .586-.31.586-.573zM.43-5.141v.347c.766 0 .873.072.873.658v3.251c0 .538-.131.538-.908.538V0c.334-.024.908-.024 1.255-.024.131 0 .825 0 1.231.024v-.347c-.777 0-.825-.06-.825-.526v-4.4L.43-5.14z" id="l"/><path d="M2.056-8.297l-1.661.132v.346c.812 0 .908.084.908.67v6.264c0 .538-.131.538-.908.538V0c.334-.024.92-.024 1.279-.024s.956 0 1.29.024v-.347c-.764 0-.908 0-.908-.538v-7.412z" id="C"/><path d="M3.921-5.057c0-.215 0-.275-.12-.275-.095 0-.322.263-.406.37-.37-.298-.741-.37-1.124-.37-1.446 0-1.876.789-1.876 1.447 0 .131 0 .55.454.968.382.335.789.418 1.339.526.657.131.813.167 1.112.406.215.18.37.443.37.778 0 .514-.299 1.087-1.35 1.087C1.53-.12.955-.574.692-1.77c-.047-.215-.047-.227-.06-.238-.023-.048-.071-.048-.107-.048-.131 0-.131.06-.131.275v1.626c0 .215 0 .275.12.275.059 0 .07-.012.274-.263.06-.084.06-.108.24-.3C1.481.12 2.127.12 2.33.12c1.256 0 1.877-.694 1.877-1.638 0-.646-.394-1.028-.502-1.136-.43-.37-.753-.442-1.542-.586-.359-.072-1.231-.239-1.231-.956 0-.37.25-.92 1.327-.92 1.303 0 1.374 1.111 1.398 1.482.012.095.096.095.132.095.131 0 .131-.06.131-.275v-1.243z" id="D"/><path d="M1.618-.438a.444.444 0 00-.438-.447.444.444 0 00-.447.439c0 .27.223.446.439.446a.444.444 0 00.446-.438z" id="v"/><path d="M3.993-3.18a.457.457 0 00-.367.43c0 .176.136.295.311.295s.447-.135.447-.478c0-.454-.503-.582-.797-.582-.375 0-.678.263-.861.574-.176-.422-.59-.574-.917-.574-.869 0-1.355.996-1.355 1.22 0 .071.056.103.12.103.095 0 .111-.04.135-.135.184-.582.662-.965 1.076-.965.311 0 .463.224.463.51 0 .16-.096.526-.16.781-.056.232-.231.941-.27 1.092-.112.43-.4.766-.758.766-.032 0-.24 0-.406-.112.366-.088.366-.422.366-.43C1.02-.87.877-.98.701-.98c-.215 0-.446.183-.446.486 0 .366.39.574.797.574.422 0 .717-.32.86-.574.176.39.543.574.925.574.87 0 1.347-.997 1.347-1.22 0-.08-.063-.103-.12-.103-.095 0-.11.055-.135.135-.16.534-.613.965-1.076.965-.263 0-.454-.176-.454-.51 0-.16.048-.343.16-.79.055-.239.23-.94.27-1.091.112-.415.39-.758.75-.758.04 0 .247 0 .414.112z" id="s"/><path d="M2.2-.574a.584.584 0 00-.574-.586.584.584 0 00-.586.574c0 .347.287.586.574.586A.584.584 0 002.2-.574z" id="j"/><path d="M7.878-5.822c.216-.096.24-.18.24-.251A.22.22 0 007.89-6.3c-.023 0-.035.012-.203.083L1.22-3.24c-.215.096-.239.18-.239.251 0 .084.012.156.24.263L7.686.251c.156.072.18.084.203.084a.22.22 0 00.228-.227c0-.072-.024-.156-.24-.251L1.722-2.977l6.156-2.845z" id="n"/><path d="M5.129-8.524c0-.012.072-.191.072-.215a.224.224 0 00-.216-.227c-.06 0-.167 0-.263.263L.717 2.547c0 .011-.071.19-.071.215 0 .143.12.227.215.227.072 0 .18-.012.263-.263l4.005-11.25z" id="g"/><path d="M5.667-4.878c-.383.072-.526.359-.526.586 0 .287.227.383.394.383.359 0 .61-.311.61-.634 0-.502-.574-.73-1.076-.73-.73 0-1.136.718-1.243.945-.275-.896-1.017-.944-1.232-.944C1.374-5.272.73-3.706.73-3.443c0 .048.048.108.132.108.095 0 .12-.072.143-.12.407-1.327 1.208-1.578 1.554-1.578.538 0 .646.502.646.789 0 .263-.072.538-.215 1.112l-.407 1.638C2.403-.777 2.056-.12 1.422-.12c-.06 0-.358 0-.609-.155a.617.617 0 00.526-.586c0-.239-.18-.382-.406-.382a.623.623 0 00-.598.633c0 .502.562.73 1.076.73.574 0 .98-.455 1.231-.945.191.705.79.945 1.231.945 1.22 0 1.865-1.567 1.865-1.83 0-.06-.047-.107-.12-.107-.107 0-.119.06-.154.155C5.14-.61 4.447-.12 3.909-.12c-.418 0-.645-.31-.645-.8 0-.264.048-.455.239-1.244L3.92-3.79c.18-.717.586-1.243 1.136-1.243.024 0 .359 0 .61.155z" id="f"/><path d="M8.68-3.91c.502.431 1.111.742 1.506.921-.43.191-1.016.502-1.507.92H1.088c-.203 0-.43 0-.43.24s.215.239.418.239h7.065C7.568-1.04 6.946.012 6.946.167c0 .132.155.132.227.132.096 0 .18 0 .227-.096.251-.454.586-1.088 1.363-1.781a5.67 5.67 0 012.248-1.231c.203-.072.215-.084.239-.108.024-.012.024-.048.024-.072s0-.048-.012-.072l-.036-.023c-.024-.012-.036-.024-.263-.096a5.75 5.75 0 01-3.48-2.845c-.13-.24-.143-.251-.31-.251-.072 0-.227 0-.227.131 0 .155.61 1.196 1.195 1.757H1.076c-.203 0-.418 0-.418.24s.227.239.43.239h7.591z" id="d"/><path d="M3.475-1.81h2.343c.112 0 .287 0 .287-.183s-.175-.183-.287-.183H3.475v-2.351c0-.112 0-.287-.183-.287s-.184.175-.184.287v2.351H.758c-.112 0-.288 0-.288.183s.176.184.287.184h2.351V.542c0 .112 0 .287.184.287s.183-.175.183-.287v-2.351z" id="t"/><path d="M3.897-2.542c0-.853-.087-1.371-.35-1.881-.351-.702-.997-.877-1.435-.877-1.004 0-1.37.75-1.482.972-.287.582-.303 1.371-.303 1.786 0 .526.024 1.33.406 1.968.367.59.957.741 1.38.741.382 0 1.067-.12 1.466-.908.294-.574.318-1.283.318-1.801zM2.112-.056c-.27 0-.82-.127-.988-.964-.088-.454-.088-1.204-.088-1.618 0-.55 0-1.108.088-1.546.167-.813.789-.893.988-.893.271 0 .821.136.98.86.096.44.096 1.037.096 1.579 0 .47 0 1.187-.096 1.634-.167.837-.717.948-.98.948z" id="u"/><path d="M2.503-5.077c0-.215-.016-.223-.232-.223-.326.319-.749.51-1.506.51v.263c.215 0 .646 0 1.108-.215v4.088c0 .295-.024.391-.781.391H.813V0c.327-.024 1.012-.024 1.37-.024s1.053 0 1.38.024v-.263h-.28c-.756 0-.78-.096-.78-.39v-4.424z" id="x"/><path d="M2.248-1.626c.127-.12.462-.382.59-.494.494-.454.964-.893.964-1.618 0-.948-.797-1.562-1.794-1.562-.956 0-1.586.725-1.586 1.434 0 .391.311.447.423.447a.41.41 0 00.414-.423c0-.414-.398-.414-.494-.414a1.232 1.232 0 011.156-.781c.741 0 1.124.63 1.124 1.299 0 .829-.582 1.435-1.523 2.399L.518-.303C.422-.215.422-.199.422 0h3.149l.23-1.427h-.246c-.024.16-.088.558-.184.71-.047.063-.653.063-.78.063H1.17l1.077-.972z" id="z"/><path d="M3.14-5.157c0-.16 0-.223-.167-.223-.104 0-.112.008-.191.12L.239-1.57v.263h2.248v.661c0 .295-.024.383-.638.383h-.183V0c.677-.024.693-.024 1.147-.024s.47 0 1.148.024v-.263h-.183c-.614 0-.638-.088-.638-.383v-.661h.845v-.263H3.14v-3.587zm-.598.646v2.94H.518l2.024-2.94z" id="A"/><path d="M1.116-4.48c.103.033.422.112.757.112.996 0 1.602-.701 1.602-.82 0-.088-.056-.112-.096-.112-.016 0-.032 0-.103.04-.311.12-.678.215-1.108.215-.47 0-.86-.12-1.108-.215C.98-5.3.964-5.3.956-5.3c-.103 0-.103.088-.103.231v2.335c0 .144 0 .24.127.24.064 0 .088-.033.128-.096.095-.12.398-.526 1.076-.526.446 0 .661.366.733.518.136.287.151.653.151.964 0 .295-.007.725-.23 1.076a1.07 1.07 0 01-.893.486A1.295 1.295 0 01.733-.917a.33.33 0 00.08.008c.223 0 .398-.143.398-.39 0-.295-.23-.399-.39-.399-.144 0-.399.08-.399.423 0 .717.622 1.442 1.539 1.442.996 0 1.84-.773 1.84-1.761 0-.925-.669-1.745-1.61-1.745-.398 0-.772.127-1.075.398v-1.538z" id="w"/></defs><g transform="matrix(1.13 0 0 1.13 -63.986 -62.287)"><use x="56.413" xlink:href="#a" y="72.249"/><use x="64.671" xlink:href="#b" y="72.249"/><use x="73.821" xlink:href="#c" y="72.249"/><use x="85.498" xlink:href="#d" y="72.249"/><use x="100.73" xlink:href="#e" y="55.392"/><use x="117.767" xlink:href="#f" y="63.91"/><use x="124.395" xlink:href="#g" y="63.91"/><use x="130.226" xlink:href="#h" y="63.91"/><use x="136.057" xlink:href="#i" y="63.91"/><use x="141.888" xlink:href="#j" y="63.91"/><use x="145.128" xlink:href="#k" y="63.91"/><use x="150.959" xlink:href="#i" y="63.91"/><use x="174.97" xlink:href="#l" y="63.91"/><use x="178.21" xlink:href="#m" y="63.91"/><use x="185.701" xlink:href="#f" y="63.91"/><use x="195.649" xlink:href="#n" y="63.91"/><use x="208.04" xlink:href="#o" y="63.91"/><use x="213.871" xlink:href="#j" y="63.91"/><use x="217.111" xlink:href="#o" y="63.91"/><use x="222.942" xlink:href="#p" y="63.91"/><use x="228.773" xlink:href="#k" y="63.91"/><use x="234.604" xlink:href="#i" y="63.91"/><use x="240.435" xlink:href="#q" y="63.91"/><use x="109.696" xlink:href="#r" y="70.704"/><use x="116.371" xlink:href="#s" y="75.68"/><use x="121.12" xlink:href="#t" y="75.68"/><use x="127.682" xlink:href="#u" y="75.68"/><use x="131.9" xlink:href="#v" y="75.68"/><use x="134.244" xlink:href="#u" y="75.68"/><use x="138.462" xlink:href="#w" y="75.68"/><use x="142.681" xlink:href="#w" y="75.68"/><path d="M116.371 77.16h30.642v.478h-30.642z"/><use x="122.048" xlink:href="#x" y="84.51"/><use x="126.266" xlink:href="#v" y="84.51"/><use x="128.61" xlink:href="#u" y="84.51"/><use x="132.828" xlink:href="#w" y="84.51"/><use x="137.046" xlink:href="#w" y="84.51"/><use x="148.209" xlink:href="#y" y="70.704"/><use x="153.689" xlink:href="#z" y="73.38"/><use x="157.907" xlink:href="#v" y="73.38"/><use x="160.25" xlink:href="#A" y="73.38"/><use x="201.582" xlink:href="#B" y="80.388"/><use x="206.765" xlink:href="#C" y="80.388"/><use x="210.005" xlink:href="#D" y="80.388"/><use x="214.605" xlink:href="#B" y="80.388"/><use x="250.985" xlink:href="#d" y="72.249"/><use x="266.216" xlink:href="#D" y="72.249"/><use x="270.816" xlink:href="#a" y="72.249"/><use x="279.074" xlink:href="#b" y="72.249"/><use x="288.224" xlink:href="#c" y="72.249"/></g></svg>
