<svg height="17.945" viewBox="-0.239 -0.241 273.351 13.459" width="364.468" xmlns="http://www.w3.org/2000/svg" xmlns:xlink="http://www.w3.org/1999/xlink"><defs><path d="M2.295-2.989c0-.346-.287-.633-.633-.633s-.634.287-.634.633.287.634.634.634.633-.287.633-.634z" id="q"/><path d="M3.885 2.905c0-.036 0-.06-.203-.263-1.195-1.207-1.865-3.18-1.865-5.619 0-2.32.562-4.316 1.949-5.726.12-.108.12-.132.12-.168 0-.071-.06-.095-.108-.095-.156 0-1.136.86-1.722 2.032-.61 1.207-.884 2.487-.884 3.957 0 1.064.167 2.487.789 3.766.705 1.435 1.685 2.212 1.817 2.212.048 0 .107-.024.107-.096z" id="d"/><path d="M3.371-2.977c0-.908-.12-2.39-.789-3.778C1.877-8.189.897-8.966.765-8.966c-.048 0-.107.024-.107.095 0 .036 0 .06.203.263 1.195 1.208 1.865 3.18 1.865 5.62 0 2.319-.562 4.315-1.949 5.726-.12.107-.12.131-.12.167 0 .072.06.096.108.096C.921 3 1.901 2.14 2.487.968c.61-1.22.884-2.51.884-3.945z" id="j"/><path d="M4.77-2.762h3.3c.167 0 .382 0 .382-.215 0-.227-.203-.227-.382-.227h-3.3v-3.3c0-.167 0-.382-.215-.382-.227 0-.227.203-.227.382v3.3h-3.3c-.167 0-.382 0-.382.215 0 .227.203.227.382.227h3.3v3.3c0 .167 0 .383.215.383.227 0 .227-.204.227-.383v-3.3z" id="s"/><path d="M5.356-3.826c0-.992-.06-1.96-.49-2.869-.49-.992-1.351-1.255-1.937-1.255-.693 0-1.542.347-1.985 1.339C.61-5.858.49-5.117.49-3.826c0 1.16.084 2.033.514 2.882A2.126 2.126 0 002.917.25c1.04 0 1.638-.622 1.985-1.315.43-.897.454-2.068.454-2.762zM2.917.012c-.382 0-1.16-.215-1.387-1.518C1.4-2.224 1.4-3.132 1.4-3.97c0-.98 0-1.865.191-2.57.203-.801.813-1.172 1.327-1.172.454 0 1.148.275 1.375 1.303.155.681.155 1.626.155 2.439 0 .8 0 1.71-.131 2.439C4.089-.215 3.336.012 2.917.012z" id="l"/><path d="M3.443-7.663c0-.275 0-.287-.239-.287-.287.323-.885.765-2.116.765v.347c.275 0 .873 0 1.53-.311v6.228c0 .43-.036.574-1.088.574h-.37V0c.322-.024 1.482-.024 1.877-.024s1.542 0 1.865.024v-.347H4.53c-1.052 0-1.088-.143-1.088-.574v-6.742z" id="o"/><path d="M5.26-2.008h-.263c-.036.203-.131.86-.25 1.052-.084.107-.766.107-1.125.107H1.411c.323-.275 1.052-1.04 1.363-1.327C4.59-3.85 5.26-4.47 5.26-5.655c0-1.375-1.088-2.295-2.474-2.295s-2.2 1.183-2.2 2.212c0 .61.526.61.562.61.25 0 .562-.18.562-.563 0-.334-.228-.562-.562-.562-.108 0-.132 0-.168.012.227-.813.873-1.362 1.65-1.362 1.016 0 1.638.848 1.638 1.948 0 1.016-.586 1.901-1.267 2.666L.586-.287V0h4.363l.311-2.008z" id="n"/><path d="M1.53-6.85c.514.167.933.179 1.064.179 1.351 0 2.212-.992 2.212-1.16 0-.047-.024-.107-.096-.107-.024 0-.047 0-.155.048A3.929 3.929 0 013-7.568c-.79 0-1.351-.239-1.578-.334-.084-.036-.108-.036-.12-.036-.096 0-.096.071-.096.263v3.55c0 .216 0 .287.144.287.06 0 .072-.012.191-.155.335-.49.897-.777 1.495-.777.633 0 .944.586 1.04.789.203.466.215 1.052.215 1.506s0 1.136-.335 1.674c-.263.43-.73.73-1.255.73A1.848 1.848 0 01.92-1.483c.06.023.131.035.19.035.204 0 .527-.12.527-.526 0-.334-.227-.526-.526-.526-.215 0-.526.108-.526.574 0 1.016.813 2.176 2.14 2.176 1.35 0 2.534-1.136 2.534-2.654 0-1.423-.956-2.606-2.211-2.606-.682 0-1.208.299-1.519.633V-6.85z" id="u"/><path d="M1.47-4.16c0-3.025 1.471-3.503 2.117-3.503.43 0 .86.131 1.087.49-.143 0-.597 0-.597.49 0 .263.179.49.49.49.299 0 .502-.18.502-.526 0-.621-.454-1.231-1.494-1.231C2.068-7.95.49-6.408.49-3.778.49-.49 1.925.252 2.941.252c1.303 0 2.415-1.137 2.415-2.69 0-1.59-1.112-2.655-2.307-2.655-1.064 0-1.459.92-1.579 1.255v-.322zM2.941-.072c-.753 0-1.112-.67-1.22-.92-.107-.311-.227-.897-.227-1.734 0-.944.43-2.128 1.507-2.128.657 0 1.004.443 1.183.849.192.442.192 1.04.192 1.554 0 .61 0 1.148-.228 1.602-.298.574-.729.777-1.207.777z" id="p"/><path d="M5.679-7.424V-7.7H2.798c-1.447 0-1.471-.156-1.519-.383h-.263L.646-5.69h.263c.035-.215.143-.956.298-1.088.096-.071.993-.071 1.16-.071h2.535L3.634-5.033c-.322.466-1.53 2.427-1.53 4.674 0 .132 0 .61.49.61.502 0 .502-.466.502-.622v-.597c0-1.782.287-3.168.85-3.97l1.733-2.486z" id="t"/><path d="M8.07-3.873c.167 0 .382 0 .382-.216 0-.227-.203-.227-.382-.227H1.028c-.167 0-.382 0-.382.215 0 .228.203.228.382.228H8.07zm0 2.223c.167 0 .382 0 .382-.215 0-.227-.203-.227-.382-.227H1.028c-.167 0-.382 0-.382.215 0 .227.203.227.382.227H8.07z" id="k"/><path d="M2.056-8.297l-1.661.132v.346c.812 0 .908.084.908.67v6.264c0 .538-.131.538-.908.538V0c.334-.024.92-.024 1.279-.024s.956 0 1.29.024v-.347c-.764 0-.908 0-.908-.538v-7.412z" id="a"/><path d="M8.572-2.905c0-1.112 0-1.447-.275-1.83-.347-.465-.909-.537-1.315-.537-.992 0-1.495.717-1.686 1.183-.167-.92-.813-1.183-1.566-1.183-1.16 0-1.614.992-1.71 1.231h-.012v-1.231l-1.625.131v.347c.813 0 .908.084.908.67v3.24c0 .537-.131.537-.908.537V0c.31-.024.956-.024 1.29-.024.347 0 .993 0 1.304.024v-.347c-.765 0-.909 0-.909-.538v-2.223c0-1.256.825-1.925 1.566-1.925s.909.61.909 1.339v2.81c0 .537-.132.537-.909.537V0c.311-.024.957-.024 1.292-.024.346 0 .992 0 1.303.024v-.347c-.765 0-.909 0-.909-.538v-2.223c0-1.256.825-1.925 1.566-1.925s.909.61.909 1.339v2.81c0 .537-.132.537-.909.537V0c.311-.024.957-.024 1.291-.024.347 0 .993 0 1.303.024v-.347c-.597 0-.896 0-.908-.358v-2.2z" id="c"/><path d="M3.634-5.14v.346c.813 0 .909.084.909.67v2.14c0 1.016-.538 1.864-1.435 1.864-.98 0-1.04-.561-1.04-1.195v-3.957l-1.685.131v.347c.908 0 .908.036.908 1.1v1.793c0 .741 0 1.172.359 1.566.287.311.777.455 1.387.455.203 0 .585 0 .992-.347.347-.275.538-.73.538-.73V.12L6.229 0v-.347c-.813 0-.909-.083-.909-.67v-4.255l-1.686.131z" id="b"/><path d="M2.2-.574a.584.584 0 00-.574-.586.584.584 0 00-.586.574c0 .347.287.586.574.586A.584.584 0 002.2-.574z" id="m"/><path d="M2.762-7.998c.012-.048.036-.12.036-.18 0-.119-.12-.119-.144-.119-.012 0-.442.036-.657.06-.204.012-.383.036-.598.048-.287.024-.37.036-.37.25 0 .12.119.12.238.12.61 0 .61.108.61.227 0 .084-.096.43-.143.646l-.287 1.148c-.12.478-.801 3.192-.85 3.407-.059.299-.059.502-.059.657C.538-.514 1.219.12 1.997.12c1.386 0 2.82-1.782 2.82-3.515 0-1.1-.62-1.877-1.517-1.877-.622 0-1.184.514-1.411.753l.873-3.479zM2.008-.12c-.382 0-.8-.286-.8-1.219 0-.395.035-.622.25-1.459.036-.155.228-.92.276-1.075.023-.096.729-1.16 1.542-1.16.526 0 .765.526.765 1.148 0 .573-.335 1.924-.634 2.546-.299.646-.849 1.22-1.399 1.22z" id="w"/><path d="M4.674-4.495c-.227 0-.334 0-.502.143a.635.635 0 00-.203.43c0 .24.18.383.407.383.287 0 .61-.239.61-.717 0-.574-.55-1.016-1.376-1.016-1.566 0-3.132 1.71-3.132 3.407C.478-.825 1.124.12 2.343.12c1.626 0 2.654-1.268 2.654-1.423 0-.072-.071-.132-.12-.132-.035 0-.047.012-.155.12C3.957-.3 2.822-.12 2.367-.12c-.825 0-1.088-.717-1.088-1.315 0-.418.203-1.578.634-2.39.31-.563.956-1.208 1.71-1.208.155 0 .812.024 1.051.538z" id="e"/><path d="M4.04-1.518c-.047.191-.07.239-.226.418-.49.634-.993.86-1.363.86-.395 0-.765-.31-.765-1.135 0-.633.358-1.972.621-2.51.347-.67.885-1.148 1.387-1.148.79 0 .945.98.945 1.052l-.036.167-.562 2.296zm.742-2.965c-.155-.347-.49-.79-1.088-.79C2.391-5.272.91-3.633.91-1.852.909-.61 1.662 0 2.427 0c.634 0 1.195-.502 1.41-.741L3.576.335c-.168.657-.24.956-.67 1.375-.49.49-.944.49-1.207.49-.359 0-.658-.024-.957-.12a.634.634 0 00.478-.574c0-.19-.143-.382-.406-.382a.615.615 0 00-.598.633c0 .49.49.682 1.507.682 1.542 0 2.343-.992 2.498-1.638l1.327-5.356c.036-.143.036-.167.036-.191a.299.299 0 00-.31-.3c-.288 0-.455.24-.49.563z" id="v"/><path d="M4.65-4.89c-.37.072-.561.335-.561.598 0 .287.227.383.394.383.335 0 .61-.287.61-.646 0-.382-.37-.717-.968-.717-.479 0-1.029.215-1.53.944-.084-.633-.563-.944-1.04-.944-.467 0-.706.358-.85.621a6.16 6.16 0 00-.382 1.208c0 .048.048.108.131.108.096 0 .108-.012.18-.287.179-.718.406-1.411.884-1.411.287 0 .37.203.37.55 0 .263-.119.73-.202 1.1l-.335 1.29c-.048.228-.18.766-.24.981-.083.311-.214.873-.214.933 0 .167.131.299.31.299a.461.461 0 00.43-.323c.037-.096.48-1.901.55-2.176.06-.263.132-.514.192-.777.048-.168.096-.359.132-.514.035-.108.358-.694.657-.957.144-.131.454-.406.945-.406.19 0 .382.036.538.143z" id="r"/><path d="M1.347-.63c-.072.303-.088.367-.678.367-.15 0-.247 0-.247.151C.422 0 .526 0 .662 0h2.956c1.316 0 2.296-.933 2.296-1.706 0-.581-.502-1.052-1.3-1.14.925-.175 1.722-.78 1.722-1.482 0-.598-.582-1.116-1.586-1.116H1.97c-.144 0-.247 0-.247.152 0 .111.095.111.23.111.264 0 .495 0 .495.128 0 .032-.008.04-.032.143L1.347-.63zM2.59-2.94l.486-1.945c.072-.27.08-.295.407-.295H4.63c.78 0 .956.51.956.837 0 .678-.725 1.403-1.745 1.403H2.59zM2.04-.263c-.071-.016-.095-.016-.095-.072 0-.064.016-.127.032-.175l.557-2.208h1.618c.742 0 .989.502.989.949 0 .78-.765 1.506-1.722 1.506H2.04z" id="i"/><path d="M6.352-5.396c.008-.032.024-.08.024-.12 0-.055-.048-.095-.104-.095s-.08.024-.143.096l-.558.613c-.367-.51-.885-.709-1.427-.709C2.28-5.611.422-3.889.422-2.064c0 1.33.989 2.231 2.344 2.231.86 0 1.498-.31 1.793-.653.096.255.287.478.367.478.031 0 .071-.016.087-.048.048-.135.24-.948.295-1.171.072-.32.128-.542.175-.606.072-.096.224-.104.463-.104.04 0 .16 0 .16-.143 0-.08-.057-.12-.12-.12-.056 0-.152.024-.925.024-.2 0-.47 0-.59-.008S4.033-2.2 3.913-2.2c-.047 0-.167 0-.167.152 0 .111.088.111.295.111.167 0 .47 0 .661.072a.297.297 0 01.016.096c0 .04-.048.215-.071.318a7.616 7.616 0 01-.168.622c-.255.534-1.028.733-1.578.733-.789 0-1.713-.414-1.713-1.713 0-.662.27-1.81.972-2.575.765-.828 1.626-.964 2.04-.964.973 0 1.419.765 1.419 1.57 0 .112-.032.255-.032.35 0 .104.104.104.136.104.103 0 .12-.031.151-.175l.478-1.897z" id="h"/><path d="M3.092-4.886c.072-.27.08-.295.407-.295h.645c.654 0 1.268.168 1.268.813 0 .351-.184.909-.55 1.172-.383.271-.837.359-1.3.359h-.98l.51-2.049zM4.447-2.71c.98-.247 1.746-.845 1.746-1.522 0-.694-.781-1.212-1.89-1.212h-2.35c-.144 0-.247 0-.247.152 0 .111.103.111.23.111.264 0 .495 0 .495.128 0 .032-.008.04-.032.143L1.331-.63c-.072.303-.088.367-.677.367-.152 0-.248 0-.248.151C.406-.08.43 0 .534 0c.151 0 .335-.016.494-.024h.494c.742 0 .973.024 1.02.024s.16 0 .16-.151c0-.112-.104-.112-.24-.112-.023 0-.167 0-.302-.016-.167-.016-.183-.04-.183-.112 0-.04.016-.087.024-.127l.518-2.096h1.036c.717 0 .94.382.94.71 0 .11-.056.334-.096.501-.063.231-.143.55-.143.694 0 .613.526.876 1.116.876.693 0 1.02-.78 1.02-.932 0-.032-.024-.112-.127-.112-.088 0-.112.072-.12.104-.175.55-.518.717-.75.717-.294 0-.326-.223-.326-.486s.048-.614.08-.877c.032-.239.032-.287.032-.366 0-.479-.311-.757-.734-.925z" id="g"/><path d="M3.212-2.997c-.183.032-.35.176-.35.375 0 .143.095.247.27.247.12 0 .367-.088.367-.446 0-.495-.518-.694-1.012-.694-1.068 0-1.403.757-1.403 1.164 0 .08 0 .366.295.59.183.143.319.167.733.247.279.055.733.135.733.55 0 .207-.151.47-.374.621-.295.192-.686.2-.813.2-.192 0-.733-.032-.933-.351a.441.441 0 00.463-.439c0-.239-.216-.294-.311-.294-.128 0-.455.095-.455.534 0 .47.495.773 1.236.773 1.387 0 1.681-.98 1.681-1.315 0-.718-.78-.87-1.075-.925-.383-.072-.694-.127-.694-.462 0-.144.136-.67.909-.67.303 0 .613.088.733.295z" id="f"/></defs><g transform="matrix(1.13 0 0 1.13 -63.986 -64.448)"><use x="56.413" xlink:href="#a" y="65.753"/><use x="59.653" xlink:href="#b" y="65.753"/><use x="66.132" xlink:href="#c" y="65.753"/><use x="75.923" xlink:href="#d" y="65.753"/><use x="80.459" xlink:href="#e" y="65.753"/><use x="85.478" xlink:href="#f" y="67.547"/><use x="89.379" xlink:href="#g" y="67.547"/><use x="95.782" xlink:href="#h" y="67.547"/><use x="102.357" xlink:href="#i" y="67.547"/><use x="109.698" xlink:href="#j" y="65.753"/><use x="117.554" xlink:href="#k" y="65.753"/><use x="129.946" xlink:href="#l" y="65.753"/><use x="135.777" xlink:href="#m" y="65.753"/><use x="139.016" xlink:href="#n" y="65.753"/><use x="144.847" xlink:href="#o" y="65.753"/><use x="150.679" xlink:href="#n" y="65.753"/><use x="156.51" xlink:href="#p" y="65.753"/><use x="164.997" xlink:href="#q" y="65.753"/><use x="170.963" xlink:href="#r" y="65.753"/><use x="179.2" xlink:href="#s" y="65.753"/><use x="190.927" xlink:href="#l" y="65.753"/><use x="196.758" xlink:href="#m" y="65.753"/><use x="199.998" xlink:href="#t" y="65.753"/><use x="205.829" xlink:href="#o" y="65.753"/><use x="211.66" xlink:href="#u" y="65.753"/><use x="217.491" xlink:href="#n" y="65.753"/><use x="225.979" xlink:href="#q" y="65.753"/><use x="231.944" xlink:href="#v" y="65.753"/><use x="240.614" xlink:href="#s" y="65.753"/><use x="252.342" xlink:href="#l" y="65.753"/><use x="258.173" xlink:href="#m" y="65.753"/><use x="261.412" xlink:href="#l" y="65.753"/><use x="267.243" xlink:href="#t" y="65.753"/><use x="273.074" xlink:href="#n" y="65.753"/><use x="278.906" xlink:href="#n" y="65.753"/><use x="287.393" xlink:href="#q" y="65.753"/><use x="293.358" xlink:href="#w" y="65.753"/></g></svg>
