<svg viewBox="0 0 346.74 387.654" fill="none" stroke-linecap="square" stroke-miterlimit="10" xmlns="http://www.w3.org/2000/svg"><path fill="none" d="M115.59 0h115.56v42.96H115.59z"/><path fill="#000" d="M139.795 21.623l-1.734 5.297h-2.094l-1.11-9.172q-.437-.062-.656-.297-.219-.234-.219-.61 0-.437.282-.702.297-.266.968-.266h2.485q.672 0 .953.266.297.25.297.672 0 .421-.297.687-.281.25-.953.25h-.969l.61 5.219 1.468-4.344h1.953l1.453 4.344.61-5.219h-.969q-.672 0-.969-.25-.28-.266-.28-.687 0-.422.28-.672.297-.266.97-.266h2.483q.672 0 .954.266.296.25.296.672 0 .359-.234.609t-.656.328l-1.078 9.172h-2.063l-1.781-5.297zm15.867 2.11h-7.656q.297.734 1.031 1.187.75.437 2.016.437 1.031 0 2.75-.453.719-.187.984-.187.375 0 .625.265.266.266.266.672 0 .36-.281.625-.36.328-1.781.641-1.407.297-2.704.297-2.25 0-3.593-1.266-1.344-1.265-1.344-3.11 0-1.968 1.453-3.202 1.453-1.235 3.36-1.235 1.14 0 2.078.407.953.39 1.421.859.657.672 1.094 1.672.281.687.281 1.594v.796zm-2.062-1.876q-.438-.796-1.125-1.187-.688-.406-1.64-.406-.954 0-1.657.406-.687.39-1.125 1.187h5.547zm6.227-6.75v4.188q.672-.453 1.375-.672.718-.219 1.437-.219 1.938 0 3.281 1.344 1.344 1.328 1.344 3.234 0 1.813-1.281 3.032-1.281 1.203-3.39 1.203-.735 0-1.438-.188-.688-.187-1.328-.562v.453h-2.188q-.687 0-.969-.25-.28-.266-.28-.688 0-.406.28-.671.297-.266.97-.266h.312v-8.078h-.313q-.687 0-.969-.25-.28-.266-.28-.688 0-.406.28-.656.282-.266.97-.266h2.187zm5.578 7.922q0-1.156-.813-1.953-.812-.812-1.984-.812t-1.984.812q-.797.797-.797 1.922 0 1.031.718 1.703.735.656 2.063.656 1.328 0 2.062-.656.735-.672.735-1.672zm10.242.891h-4.531l-.453 1.125h.453q.672 0 .953.266.297.265.297.687 0 .406-.297.672-.281.25-.953.25H168.6q-.671 0-.953-.25-.297-.266-.297-.688 0-.421.313-.687.297-.266.984-.25l2.938-7.297h-1.219q-.687 0-.969-.25-.281-.266-.281-.687 0-.422.281-.672.282-.266.969-.266h4.031l3.719 9.172q.656 0 .86.156.421.297.421.797 0 .406-.281.672-.281.25-.953.25h-2.516q-.672 0-.968-.25-.282-.266-.282-.688 0-.406.282-.671.296-.266.968-.266h.453l-.453-1.125zm-.765-1.875l-1.5-3.703-1.516 3.703h3.016zm9.289-3.39v1.156q1.187-.844 1.86-1.125.687-.282 1.265-.282.922 0 1.781.672.578.453.578.922 0 .406-.28.688-.282.28-.673.28-.344 0-.734-.343-.375-.36-.672-.36-.39 0-1.172.5-.781.485-1.953 1.47v2.812h2.672q.672 0 .953.266.297.265.297.687 0 .406-.297.672-.281.25-.953.25h-5.64q-.673 0-.97-.25-.28-.266-.28-.688 0-.406.28-.671.297-.266.97-.266h1.109v-4.531h-.672q-.672 0-.969-.25-.281-.266-.281-.688 0-.406.281-.656.297-.266.969-.266h2.531zm16.274 5.077h-7.657q.297.735 1.032 1.188.75.437 2.015.437 1.032 0 2.75-.453.72-.187.985-.187.375 0 .625.265.265.266.265.672 0 .36-.28.625-.36.328-1.782.641-1.406.297-2.703.297-2.25 0-3.594-1.266-1.344-1.265-1.344-3.11 0-1.968 1.453-3.202 1.453-1.235 3.36-1.235 1.14 0 2.078.407.953.39 1.422.859.656.672 1.093 1.672.282.687.282 1.594v.796zm-2.063-1.875q-.437-.796-1.125-1.187-.687-.406-1.64-.406-.954 0-1.657.406-.687.39-1.125 1.187h5.547zm10.258 5.063v-.438q-.703.375-1.562.563-.844.187-1.531.187-1.5 0-2.438-.796-.937-.797-.937-1.766 0-1.172 1.187-2.172 1.203-1.016 3.313-1.016.859 0 1.968.188v-.453q0-.422-.36-.688-.358-.265-1.374-.265-.828 0-2.156.328-.485.125-.766.125-.36 0-.625-.266-.266-.265-.266-.687 0-.235.094-.407.094-.187.25-.28.172-.11.688-.25.703-.204 1.422-.313.718-.11 1.296-.11 1.735 0 2.688.75.969.75.969 2.047v3.844h.328q.672 0 .953.266.297.265.297.687 0 .406-.297.672-.281.25-.953.25h-2.188zm0-3.344q-1.125-.219-2.078-.219-1.125 0-1.953.563-.516.344-.516.719 0 .265.25.422.454.296 1.25.296.672 0 1.516-.265.86-.266 1.531-.719v-.797z"/><path fill="none" d="M.031 114.898h115.56v42.96H.03z"/><path fill="#000" d="M12.99 135.144v.531q.438-.375.954-.562.531-.188 1.156-.188 1.422 0 2.25.891.656.703.656 1.844v2.969q.5 0 .735.234.25.219.25.578 0 .344-.25.578-.235.219-.813.219h-1.453q-.578 0-.828-.219-.234-.234-.234-.594 0-.343.234-.562.25-.234.75-.234v-3.016q0-.531-.281-.766-.36-.312-1.094-.312-.563 0-.984.219-.407.203-1.047.906v2.969q.61 0 .797.125.375.234.375.687 0 .344-.25.578-.235.219-.813.219h-1.828q-.578 0-.828-.219-.235-.234-.235-.594 0-.437.375-.671.188-.125.797-.125v-3.891q-.5 0-.75-.219-.234-.234-.234-.578 0-.36.234-.578.25-.219.828-.219h1.532zm12.665 7.094v-.375q-.61.312-1.344.469-.719.172-1.312.172-1.282 0-2.094-.688-.797-.687-.797-1.516 0-1 1.016-1.859 1.03-.875 2.843-.875.735 0 1.688.156v-.375q0-.359-.313-.578-.312-.234-1.172-.234-.718 0-1.843.281-.422.094-.657.094-.328 0-.546-.219-.22-.234-.22-.594 0-.203.079-.343.078-.157.219-.25.14-.094.578-.22.594-.155 1.203-.25.625-.109 1.125-.109 1.5 0 2.312.657.829.64.829 1.75v3.297h.28q.579 0 .813.234.25.219.25.578 0 .344-.25.578-.234.219-.812.219h-1.875zm0-2.875q-.969-.188-1.781-.188-.97 0-1.672.485-.438.297-.438.61 0 .234.203.374.39.25 1.078.25.579 0 1.297-.219.735-.234 1.313-.625v-.687zm8.164.922l1.734-3.547q-.64 0-.828-.11-.39-.234-.39-.687 0-.36.25-.578.25-.219.828-.219H37.6q.578 0 .828.219t.25.578q0 .36-.25.578-.25.219-.828.219h-.266l-2.671 5.5H32.99l-2.688-5.5h-.219q-.578 0-.828-.219t-.25-.578q0-.36.25-.578.25-.219.828-.219h2.141q.578 0 .813.219.25.219.25.578 0 .453-.375.688-.188.109-.829.109l1.735 3.547zm10.164-8.188v1.703h-1.906v-1.703h1.906zm.219 3.047v5.485h1.922q.578 0 .828.234.25.219.25.578 0 .344-.25.578-.25.219-.828.219h-5.438q-.578 0-.828-.219-.25-.234-.25-.594 0-.343.25-.562.25-.234.828-.234h1.922v-3.891H41.31q-.562 0-.812-.219t-.25-.578q0-.36.234-.578.25-.219.828-.219h2.89zm10.57.469v-.469h1.875q.578 0 .828.219t.25.578q0 .36-.25.578-.25.219-.828.219h-.266v5.844q0 .843-.359 1.468-.36.625-1.094 1.079-.734.453-1.656.453h-1.813q-.578 0-.828-.219-.234-.219-.234-.578 0-.36.234-.578.25-.219.828-.219h1.766q.734 0 1.14-.406.407-.39.407-1v-.797q-.531.344-1.078.515-.547.188-1.125.188-1.64 0-2.75-1.094-1.094-1.094-1.094-2.703 0-1.61 1.094-2.687 1.11-1.094 2.75-1.094.61 0 1.156.172.547.172 1.047.531zm0 3.078q0-.89-.656-1.531-.657-.656-1.563-.656-.922 0-1.578.656-.64.64-.64 1.531 0 .89.64 1.531.656.641 1.578.641.906 0 1.563-.64.656-.641.656-1.532zm9.289 3.547v-.375q-.61.312-1.344.469-.718.172-1.312.172-1.281 0-2.094-.688-.797-.687-.797-1.516 0-1 1.016-1.859 1.031-.875 2.844-.875.734 0 1.687.156v-.375q0-.359-.312-.578-.313-.234-1.172-.234-.72 0-1.844.281-.422.094-.656.094-.328 0-.547-.219-.219-.234-.219-.594 0-.203.078-.343.078-.157.219-.25.14-.094.578-.22.594-.155 1.203-.25.625-.109 1.125-.109 1.5 0 2.313.657.828.64.828 1.75v3.297h.281q.578 0 .813.234.25.219.25.578 0 .344-.25.578-.235.219-.813.219h-1.875zm0-2.875q-.969-.188-1.781-.188-.969 0-1.672.485-.438.297-.438.61 0 .234.204.374.39.25 1.078.25.578 0 1.297-.219.734-.234 1.312-.625v-.687zm7.758-2.625v3.219q0 .515.219.672.328.265 1.171.265 1.22 0 2.266-.531.39-.203.625-.203.313 0 .531.234.235.235.235.578 0 .313-.25.532-.375.375-1.516.687-1.125.313-1.89.313-1.5 0-2.25-.641-.735-.656-.735-1.594v-3.531h-.578q-.578 0-.828-.219t-.25-.578q0-.36.25-.578.25-.219.828-.219h.578v-1.453q0-.578.219-.812.219-.25.578-.25.36 0 .578.25.219.234.219.812v1.453h2.969q.578 0 .812.219.25.219.25.578 0 .36-.25.578-.234.219-.812.219h-2.97zm10.57-4.64v1.702h-1.906v-1.703h1.906zm.219 3.046v5.485h1.922q.578 0 .828.234.25.219.25.578 0 .344-.25.578-.25.219-.828.219h-5.438q-.578 0-.828-.219-.25-.234-.25-.594 0-.343.25-.562.25-.234.828-.234h1.922v-3.891h-1.297q-.562 0-.812-.219t-.25-.578q0-.36.234-.578.25-.219.828-.219h2.89zm12.976 3.672q0 .922-.515 1.797-.516.86-1.531 1.375-1 .516-2.11.516-1.094 0-2.094-.5-1-.516-1.53-1.375-.516-.875-.516-1.829 0-.953.53-1.875.532-.937 1.532-1.468 1-.532 2.078-.532 1.094 0 2.11.547 1.015.547 1.53 1.47.516.905.516 1.874zm-1.609.016q0-.782-.547-1.422-.765-.875-2-.875-1.078 0-1.812.703-.719.687-.719 1.594 0 .75.734 1.406.735.656 1.797.656 1.078 0 1.813-.656.734-.656.734-1.406zm5.43-3.688v.531q.437-.375.953-.562.531-.188 1.156-.188 1.422 0 2.25.891.656.703.656 1.844v2.969q.5 0 .735.234.25.219.25.578 0 .344-.25.578-.235.219-.813.219h-1.453q-.578 0-.828-.219-.234-.234-.234-.594 0-.343.234-.562.25-.234.75-.234v-3.016q0-.531-.281-.766-.36-.312-1.094-.312-.562 0-.984.219-.407.203-1.047.906v2.969q.61 0 .797.125.375.234.375.687 0 .344-.25.578-.235.219-.813.219h-1.828q-.578 0-.828-.219-.234-.234-.234-.594 0-.437.375-.671.187-.125.796-.125v-3.891q-.5 0-.75-.219-.234-.234-.234-.578 0-.36.234-.578.25-.219.829-.219h1.53z"/><path fill="none" d="M231.15 114.898h115.559v42.96h-115.56z"/><path fill="#000" d="M258.592 130.005v4.188q.672-.453 1.375-.672.72-.219 1.438-.219 1.937 0 3.281 1.344 1.344 1.328 1.344 3.234 0 1.813-1.281 3.031-1.282 1.204-3.391 1.204-.734 0-1.437-.188-.688-.187-1.329-.562v.453h-2.187q-.688 0-.969-.25-.281-.266-.281-.688 0-.406.281-.672.297-.265.969-.265h.312v-8.078h-.312q-.688 0-.969-.25-.281-.266-.281-.688 0-.406.281-.656.281-.266.969-.266h2.187zm5.579 7.922q0-1.156-.813-1.953-.812-.813-1.984-.813t-1.985.813q-.797.797-.797 1.922 0 1.031.72 1.703.734.656 2.062.656 1.328 0 2.062-.656.735-.672.735-1.672zm9.648 3.89v-.437q-.703.375-1.562.563-.844.187-1.532.187-1.5 0-2.437-.797-.938-.797-.938-1.765 0-1.172 1.188-2.172 1.203-1.016 3.312-1.016.86 0 1.97.188v-.453q0-.422-.36-.688-.36-.266-1.375-.266-.828 0-2.156.329-.485.125-.766.125-.36 0-.625-.266-.266-.266-.266-.688 0-.234.094-.406.094-.187.25-.281.172-.11.688-.25.703-.203 1.421-.313.72-.109 1.297-.109 1.735 0 2.688.75.969.75.969 2.047v3.844h.328q.672 0 .953.265.297.266.297.688 0 .406-.297.672-.281.25-.953.25h-2.188zm0-3.343q-1.125-.219-2.078-.219-1.125 0-1.953.563-.516.343-.516.718 0 .266.25.422.453.297 1.25.297.672 0 1.516-.265.86-.266 1.531-.72v-.796zm7.618-4.922v.625q.515-.437 1.125-.656.625-.219 1.343-.219 1.657 0 2.625 1.031.766.813.766 2.14v3.47q.578 0 .86.265.296.266.296.688 0 .406-.297.672-.28.25-.953.25h-1.687q-.672 0-.969-.25-.281-.266-.281-.688 0-.406.281-.672.281-.265.875-.265v-3.516q0-.61-.328-.89-.422-.376-1.281-.376-.657 0-1.141.25t-1.234 1.063v3.469q.718 0 .937.14.438.282.438.813 0 .406-.282.672-.28.25-.968.25h-2.11q-.687 0-.968-.25-.282-.266-.282-.688 0-.515.438-.797.219-.14.937-.14v-4.532q-.593 0-.875-.265-.281-.266-.281-.672t.281-.656q.282-.266.969-.266h1.766zm11.195 0v.625q.516-.437 1.125-.656.625-.219 1.344-.219 1.656 0 2.625 1.031.766.813.766 2.14v3.47q.578 0 .859.265.297.266.297.688 0 .406-.297.672-.281.25-.953.25h-1.688q-.671 0-.968-.25-.282-.266-.282-.688 0-.406.282-.672.28-.265.875-.265v-3.516q0-.61-.328-.89-.422-.376-1.282-.376-.656 0-1.14.25-.485.25-1.235 1.063v3.469q.719 0 .938.14.437.282.437.813 0 .406-.281.672-.281.25-.969.25h-2.11q-.687 0-.968-.25-.281-.266-.281-.688 0-.515.437-.797.22-.14.938-.14v-4.532q-.594 0-.875-.265-.281-.266-.281-.672t.28-.656q.282-.266.97-.266h1.765zm17.774 5.078h-7.656q.297.735 1.03 1.188.75.437 2.017.437 1.03 0 2.75-.453.718-.187.984-.187.375 0 .625.265.266.266.266.672 0 .36-.282.625-.36.328-1.78.64-1.407.298-2.704.298-2.25 0-3.594-1.266-1.344-1.266-1.344-3.11 0-1.968 1.454-3.203 1.453-1.234 3.359-1.234 1.14 0 2.078.406.953.39 1.422.86.656.672 1.094 1.672.28.687.28 1.593v.797zm-2.063-1.875q-.437-.797-1.125-1.187-.687-.407-1.64-.407-.953 0-1.656.407-.688.39-1.125 1.187h5.546zm8.18-3.203v1.156q1.188-.843 1.86-1.125.687-.281 1.265-.281.922 0 1.782.672.578.453.578.922 0 .406-.281.687-.282.282-.672.282-.344 0-.735-.344-.375-.36-.672-.36-.39 0-1.171.5-.782.485-1.954 1.47v2.812h2.672q.672 0 .953.265.297.266.297.688 0 .406-.297.672-.28.25-.953.25h-5.64q-.672 0-.97-.25-.28-.266-.28-.688 0-.406.28-.672.298-.265.97-.265h1.109v-4.532h-.672q-.672 0-.969-.25-.28-.265-.28-.687 0-.406.28-.656.297-.266.97-.266h2.53z"/><path fill="none" d="M115.59 229.795h115.56v42.96H115.59z"/><path fill="#000" d="M153.698 248.45v.515q.453-.437.812-.61.375-.171.86-.171.406 0 .812.203t.781.61q.485-.407.97-.594.5-.203 1.03-.203 1.032 0 1.688.547.844.734.844 1.921v4.172q.593 0 .875.266.28.266.28.687 0 .407-.28.672-.282.25-.954.25h-1.78v-5.89q0-.438-.157-.594-.156-.172-.469-.172-.312 0-.578.172-.344.219-.828.86v3.75q.594 0 .875.265.281.266.281.687 0 .407-.281.672-.281.25-.953.25h-1.781v-5.89q0-.422-.157-.594-.156-.172-.484-.172-.328 0-.656.219-.313.203-.75.812v3.75q.578 0 .86.266.296.266.296.687 0 .407-.297.672-.281.25-.953.25h-1.688q-.671 0-.953-.25-.297-.265-.297-.687 0-.406.282-.672.28-.266.875-.266v-4.531q-.594 0-.875-.266-.282-.265-.282-.671 0-.407.297-.657.282-.265.953-.265h1.782zm15.758 8.265v-.437q-.703.375-1.563.562-.843.188-1.531.188-1.5 0-2.437-.797-.938-.797-.938-1.766 0-1.172 1.188-2.172 1.203-1.015 3.312-1.015.86 0 1.969.187v-.453q0-.422-.36-.687-.359-.266-1.375-.266-.828 0-2.156.328-.484.125-.765.125-.36 0-.625-.265-.266-.266-.266-.688 0-.234.094-.406.093-.188.25-.281.172-.11.687-.25.703-.204 1.422-.313.719-.11 1.297-.11 1.734 0 2.687.75.97.75.97 2.048v3.843h.327q.672 0 .953.266.297.266.297.687 0 .407-.297.672-.28.25-.953.25h-2.187zm0-3.343q-1.125-.22-2.078-.22-1.125 0-1.953.563-.516.344-.516.719 0 .266.25.422.453.297 1.25.297.672 0 1.516-.266.859-.265 1.53-.719v-.796zm10.18-8.47v1.97h-2.22v-1.97h2.22zm.25 3.548v6.39h2.25q.672 0 .953.266.297.266.297.687 0 .407-.297.672-.281.25-.953.25h-6.36q-.672 0-.953-.25-.281-.265-.281-.687 0-.406.281-.672t.953-.266h2.25v-4.531h-1.5q-.672 0-.968-.25-.282-.266-.282-.687 0-.407.282-.657.296-.265.968-.265h3.36zm8.383 0v.625q.515-.438 1.125-.657.625-.218 1.344-.218 1.656 0 2.625 1.03.765.813.765 2.142v3.468q.578 0 .86.266.296.266.296.687 0 .407-.296.672-.282.25-.954.25h-1.687q-.672 0-.969-.25-.281-.265-.281-.687 0-.406.281-.672t.875-.266v-3.515q0-.61-.328-.891-.422-.375-1.281-.375-.656 0-1.14.25-.485.25-1.235 1.063v3.468q.719 0 .937.14.438.282.438.813 0 .407-.281.672-.282.25-.97.25h-2.109q-.687 0-.968-.25-.282-.265-.282-.687 0-.516.438-.797.219-.14.937-.14v-4.532q-.593 0-.875-.266-.28-.265-.28-.671 0-.407.28-.657.282-.265.97-.265h1.765z"/><path fill="none" d="M173.37 42.96c0 17.985-28.89 26.977-57.78 35.97-28.89 8.991-57.779 17.983-57.779 35.968"/><path stroke="#000" stroke-linejoin="round" stroke-linecap="butt" d="M173.37 42.96c0 17.985-28.89 26.977-57.78 35.97-28.89 8.991-57.779 17.983-57.779 35.968"/><path fill="none" d="M173.37 42.96c0 17.985 28.89 26.977 57.78 35.97 28.89 8.991 57.78 17.983 57.78 35.968"/><path stroke="#000" stroke-linejoin="round" stroke-linecap="butt" d="M173.37 42.96c0 17.985 28.89 26.977 57.78 35.97 28.89 8.991 57.78 17.983 57.78 35.968"/><path fill="none" d="M173.37 42.96c0 46.71.016 70.064.032 93.418.015 23.354.031 46.709.031 93.417"/><path stroke="#000" stroke-linejoin="round" stroke-linecap="butt" d="M173.37 42.96c0 46.71.016 70.064.032 93.418.015 23.354.031 46.709.031 93.417"/><path fill="none" d="M115.59 344.693h115.56v42.96H115.59z"/><path fill="#000" d="M129.623 371.36v2.844h1.047q.625 0 .89.234.266.25.266.64 0 .376-.265.61-.266.25-.89.25h-3.079q-.625 0-.89-.25-.266-.234-.266-.61 0-.39.265-.64.266-.234.891-.234h.297v-7.844h-.297q-.625 0-.89-.234-.266-.25-.266-.625 0-.39.265-.625.266-.25.891-.25h2.031v.593q.61-.406 1.25-.609.657-.203 1.344-.203 1.781 0 3.031 1.203 1.25 1.203 1.25 2.766 0 1.718-1.484 2.828-1.234.937-2.781.937-.672 0-1.328-.187-.641-.203-1.282-.594zm5.141-2.984q0-.36-.297-.922-.281-.563-.875-.938t-1.39-.375q-1.297 0-2.063.97-.516.671-.516 1.28 0 .703.735 1.36.75.656 1.843.656 1.094 0 1.829-.656.734-.657.734-1.375zm8.977 3.937v-.406q-.657.344-1.453.516-.782.171-1.422.171-1.39 0-2.266-.734-.875-.734-.875-1.64 0-1.094 1.11-2.016 1.124-.938 3.078-.938.796 0 1.828.172v-.422q0-.39-.344-.625-.328-.25-1.266-.25-.78 0-2 .297-.453.11-.718.11-.344 0-.594-.25-.235-.25-.235-.641 0-.219.079-.375.093-.156.25-.25.156-.11.64-.234.64-.188 1.297-.282.672-.109 1.219-.109 1.61 0 2.5.703.906.688.906 1.89v3.579h.297q.625 0 .89.25.266.234.266.625 0 .375-.265.625-.266.234-.891.234h-2.031zm0-3.11q-1.047-.202-1.922-.202-1.063 0-1.828.515-.47.328-.47.672 0 .25.235.406.422.266 1.157.266.625 0 1.406-.234.797-.25 1.422-.672v-.75zm8.476-4.577v1.093q1.094-.796 1.72-1.046.624-.266 1.171-.266.86 0 1.656.625.532.422.532.86 0 .374-.266.64-.25.25-.61.25-.328 0-.687-.313-.344-.328-.625-.328-.36 0-1.094.453-.718.454-1.797 1.375v2.61h2.47q.624 0 .89.25.265.234.265.625 0 .375-.265.625-.266.234-.89.234h-5.235q-.625 0-.906-.234-.266-.25-.266-.64 0-.376.266-.61.28-.25.906-.25h1.031v-4.219h-.625q-.625 0-.906-.234-.266-.25-.266-.625 0-.39.266-.625.281-.25.906-.25h2.36zm12.32 7.687v-.406q-.655.344-1.452.516-.782.171-1.422.171-1.39 0-2.266-.734-.875-.734-.875-1.64 0-1.094 1.11-2.016 1.125-.938 3.078-.938.797 0 1.828.172v-.422q0-.39-.344-.625-.328-.25-1.266-.25-.78 0-2 .297-.453.11-.718.11-.344 0-.594-.25-.234-.25-.234-.641 0-.219.078-.375.093-.156.25-.25.156-.11.64-.234.641-.188 1.297-.282.672-.109 1.219-.109 1.61 0 2.5.703.906.688.906 1.89v3.579h.297q.625 0 .89.25.266.234.266.625 0 .375-.265.625-.266.234-.89.234h-2.032zm0-3.11q-1.046-.202-1.921-.202-1.063 0-1.828.515-.469.328-.469.672 0 .25.234.406.422.266 1.157.266.625 0 1.406-.234.797-.25 1.422-.672v-.75zm10.743-4.062v-.515h2.031q.625 0 .891.25.266.234.266.625 0 .375-.266.625-.266.234-.89.234h-.297v6.313q0 .921-.391 1.593-.375.688-1.172 1.172-.797.5-1.797.5h-1.969q-.625 0-.89-.25-.266-.234-.266-.61 0-.39.266-.64.265-.234.89-.234h1.922q.797 0 1.235-.438.437-.422.437-1.093v-.844q-.578.375-1.172.562-.593.188-1.218.188-1.782 0-2.97-1.172-1.187-1.188-1.187-2.922 0-1.75 1.188-2.922 1.187-1.187 2.969-1.187.656 0 1.25.187.593.188 1.14.578zm-.015 3.328q0-.953-.704-1.656-.703-.703-1.687-.703-1 0-1.703.703-.703.703-.703 1.656 0 .97.703 1.672.703.688 1.703.688.984 0 1.687-.688.704-.703.704-1.672zm8.148-3.843v1.093q1.094-.796 1.719-1.046.625-.266 1.172-.266.86 0 1.656.625.531.422.531.86 0 .374-.265.64-.25.25-.61.25-.328 0-.687-.313-.344-.328-.625-.328-.36 0-1.094.453-.719.454-1.797 1.375v2.61h2.469q.625 0 .89.25.266.234.266.625 0 .375-.266.625-.265.234-.89.234h-5.235q-.625 0-.906-.234-.265-.25-.265-.64 0-.376.265-.61.281-.25.906-.25h1.032v-4.219h-.625q-.625 0-.907-.234-.265-.25-.265-.625 0-.39.265-.625.282-.25.907-.25h2.36zm12.32 7.687v-.406q-.656.344-1.453.516-.78.171-1.421.171-1.391 0-2.266-.734t-.875-1.64q0-1.094 1.11-2.016 1.124-.938 3.077-.938.797 0 1.829.172v-.422q0-.39-.344-.625-.328-.25-1.266-.25-.781 0-2 .297-.453.11-.719.11-.343 0-.593-.25-.235-.25-.235-.641 0-.219.078-.375.094-.156.25-.25.157-.11.641-.234.64-.188 1.297-.282.672-.109 1.219-.109 1.61 0 2.5.703.906.688.906 1.89v3.579h.297q.625 0 .89.25.266.234.266.625 0 .375-.266.625-.265.234-.89.234h-2.031zm0-3.11q-1.046-.202-1.921-.202-1.063 0-1.828.515-.47.328-.47.672 0 .25.235.406.422.266 1.156.266.625 0 1.407-.234.797-.25 1.422-.672v-.75zm6.68 2.157v2.844h1.047q.625 0 .89.234.267.25.267.64 0 .376-.266.61-.266.25-.89.25h-3.079q-.625 0-.89-.25-.266-.234-.266-.61 0-.39.266-.64.265-.234.89-.234h.297v-7.844h-.297q-.625 0-.89-.234-.266-.25-.266-.625 0-.39.266-.625.265-.25.89-.25h2.031v.593q.61-.406 1.25-.609.657-.203 1.344-.203 1.781 0 3.031 1.203 1.25 1.203 1.25 2.766 0 1.718-1.484 2.828-1.234.937-2.781.937-.672 0-1.328-.187-.641-.203-1.282-.594zm5.141-2.984q0-.36-.297-.922-.281-.563-.875-.938t-1.39-.375q-1.297 0-2.063.97-.516.671-.516 1.28 0 .703.735 1.36.75.656 1.844.656 1.093 0 1.828-.656.734-.657.734-1.375zm5.617-7.032v3.688q.547-.313 1.094-.469.563-.156 1.125-.156.89 0 1.594.312.703.297 1.156.954.469.656.469 1.656v3.25q.672 0 .875.125.406.265.406.75 0 .375-.266.625-.265.234-.89.234h-1.985q-.609 0-.875-.234-.265-.25-.265-.64 0-.47.406-.735.203-.14.86-.125v-3.14q0-.673-.313-.938-.39-.36-1.172-.36-.578 0-1.031.22-.438.218-1.188.968v3.25q.672 0 .86.125.422.265.422.75 0 .375-.266.625-.266.234-.89.234h-1.97q-.624 0-.906-.234-.265-.25-.265-.64 0-.47.422-.735.203-.14.859-.125v-7.5h-.297q-.625 0-.89-.235-.266-.25-.266-.64 0-.375.265-.61.266-.25.891-.25h2.031z"/><path fill="none" d="M0 344.693h115.559v42.96H0z"/><path fill="#000" d="M26.251 363.894v-.547h2.188q.672 0 .953.266.297.25.297.672 0 .406-.297.672-.281.25-.953.25h-.328v6.797q0 .984-.422 1.718-.406.735-1.266 1.266-.844.531-1.922.531h-2.11q-.687 0-.968-.265-.281-.266-.281-.672 0-.422.281-.688.281-.25.969-.25h2.047q.86 0 1.328-.469.484-.453.484-1.171v-.907q-.625.39-1.265.594-.641.203-1.313.203-1.906 0-3.203-1.265-1.281-1.282-1.281-3.141 0-1.875 1.281-3.14 1.297-1.282 3.203-1.282.703 0 1.344.203.64.203 1.234.625zm-.015 3.578q0-1.031-.766-1.781-.75-.75-1.812-.75-1.079 0-1.844.75-.75.75-.75 1.781 0 1.047.75 1.797.765.75 1.844.75 1.062 0 1.812-.75.766-.75.766-1.797zm13.836.953h-7.656q.296.735 1.03 1.188.75.437 2.016.437 1.032 0 2.75-.453.72-.187.985-.187.375 0 .625.265.265.266.265.672 0 .36-.28.625-.36.328-1.782.64-1.406.298-2.703.298-2.25 0-3.594-1.266-1.344-1.265-1.344-3.11 0-1.968 1.453-3.202 1.454-1.235 3.36-1.235 1.14 0 2.078.407.953.39 1.422.859.656.672 1.094 1.672.28.687.28 1.594v.796zm-2.063-1.875q-.437-.796-1.125-1.187-.687-.406-1.64-.406-.953 0-1.657.406-.687.39-1.125 1.187h5.547zm6.68-3.203v.625q.516-.437 1.125-.656.625-.219 1.344-.219 1.656 0 2.625 1.032.766.812.766 2.14v3.469q.578 0 .859.266.297.265.297.687 0 .406-.297.672-.281.25-.953.25h-1.688q-.671 0-.968-.25-.282-.266-.282-.688 0-.406.282-.671.28-.266.875-.266v-3.516q0-.61-.328-.89-.422-.375-1.282-.375-.656 0-1.14.25-.485.25-1.235 1.062v3.469q.719 0 .938.14.437.282.437.813 0 .406-.281.672-.281.25-.969.25h-2.11q-.687 0-.968-.25-.281-.266-.281-.688 0-.515.437-.796.22-.141.938-.141v-4.531q-.594 0-.875-.266t-.281-.672q0-.406.28-.656.282-.266.97-.266h1.765zm17.774 5.078h-7.656q.297.735 1.031 1.188.75.437 2.016.437 1.03 0 2.75-.453.718-.187.984-.187.375 0 .625.265.266.266.266.672 0 .36-.282.625-.359.328-1.78.64-1.407.298-2.704.298-2.25 0-3.594-1.266-1.344-1.265-1.344-3.11 0-1.968 1.454-3.202 1.453-1.235 3.359-1.235 1.14 0 2.078.407.953.39 1.422.859.656.672 1.094 1.672.281.687.281 1.594v.796zM60.4 366.55q-.437-.796-1.125-1.187-.687-.406-1.64-.406-.953 0-1.656.406-.688.39-1.125 1.187H60.4zm8.18-3.203v1.157q1.188-.844 1.86-1.125.687-.282 1.265-.282.922 0 1.782.672.578.453.578.922 0 .406-.281.688-.282.28-.672.28-.344 0-.735-.343-.375-.36-.672-.36-.39 0-1.171.5-.782.485-1.954 1.47v2.812h2.672q.672 0 .953.266.297.265.297.687 0 .406-.297.672-.28.25-.953.25h-5.64q-.672 0-.97-.25-.28-.266-.28-.688 0-.406.28-.671.298-.266.97-.266h1.11v-4.531h-.673q-.672 0-.969-.25-.28-.266-.28-.688 0-.406.28-.656.297-.266.97-.266h2.53zM80.84 359.8v1.97h-2.22v-1.97h2.22zm.25 3.547v6.39h2.25q.671 0 .953.267.297.265.297.687 0 .406-.297.672-.282.25-.953.25h-6.36q-.672 0-.953-.25-.281-.266-.281-.688 0-.406.281-.671.281-.266.953-.266h2.25v-4.531h-1.5q-.672 0-.969-.25-.28-.266-.28-.688 0-.406.28-.656.297-.266.97-.266h3.359zm13.195.328q.328-.312.688-.312.39 0 .656.297.265.281.265.937v1.203q0 .672-.265.954-.266.28-.672.28-.39 0-.656-.218-.188-.156-.297-.656-.11-.516-.531-.766-.735-.437-1.875-.437-1.329 0-2.125.78-.797.782-.797 1.954 0 1.094.765 1.734.766.625 2.547.625 1.156 0 1.89-.234.438-.14.829-.484.406-.36.719-.36.375 0 .656.282.281.28.281.671 0 .61-.844 1.172-1.265.828-3.687.828-2.172 0-3.39-.906-1.641-1.203-1.641-3.312 0-2 1.328-3.297 1.344-1.313 3.484-1.313.766 0 1.422.157.672.14 1.25.421z"/><path fill="none" d="M231.181 344.693h115.56v42.96H231.18z"/><path fill="#000" d="M279.183 370.675q0 .532-.375.891-.36.344-1.016.344t-1.031-.344q-.375-.36-.375-.89 0-.532.375-.876.375-.359 1.031-.359.657 0 1.016.36.375.343.375.874zm11.195 0q0 .532-.375.891-.359.344-1.015.344-.656 0-1.031-.344-.375-.36-.375-.89 0-.532.375-.876.375-.359 1.03-.359.657 0 1.016.36.375.343.375.874zm11.196 0q0 .532-.375.891-.36.344-1.016.344t-1.03-.344q-.376-.36-.376-.89 0-.532.375-.876.375-.359 1.031-.359.657 0 1.016.36.375.343.375.874z"/><path fill="none" d="M173.37 272.756c0 17.984-28.898 26.976-57.795 35.968-28.898 8.993-57.795 17.985-57.795 35.969"/><path stroke="#000" stroke-linejoin="round" stroke-linecap="butt" d="M173.37 272.756c0 17.984-28.898 26.976-57.795 35.968-28.898 8.993-57.795 17.985-57.795 35.969"/><path fill="none" d="M173.37 272.756c0 17.984 28.898 26.976 57.795 35.968 28.898 8.993 57.796 17.985 57.796 35.969"/><path stroke="#000" stroke-linejoin="round" stroke-linecap="butt" d="M173.37 272.756c0 17.984 28.898 26.976 57.795 35.968 28.898 8.993 57.796 17.985 57.796 35.969"/><path fill="none" d="M173.37 272.756c0 17.984.016 26.976.032 35.968.015 8.993.031 17.985.031 35.969"/><path stroke="#000" stroke-linejoin="round" stroke-linecap="butt" d="M173.37 272.756c0 17.984.016 26.976.032 35.968.015 8.993.031 17.985.031 35.969"/><path fill="none" d="M.031 229.795h115.56v42.96H.03z"/><path fill="#000" d="M41.951 244.903v9.937h2.235q.687 0 .968.266.282.266.282.687 0 .407-.282.672-.281.25-.968.25h-6.344q-.672 0-.969-.25-.281-.265-.281-.687 0-.406.281-.672.297-.266.969-.266h2.25v-8.078h-1.516q-.656 0-.953-.25-.297-.265-.297-.687 0-.407.281-.657.297-.265.97-.265h3.374zm10.93 0v1.969h-2.219v-1.97h2.22zm.25 3.547v6.39h2.25q.672 0 .953.266.297.266.297.687 0 .407-.297.672-.281.25-.953.25h-6.36q-.671 0-.952-.25-.282-.265-.282-.687 0-.406.282-.672.28-.266.953-.266h2.25v-4.531h-1.5q-.672 0-.969-.25-.281-.266-.281-.687 0-.407.281-.657.297-.265.969-.265h3.36zm12.29 2.187q-.454-.297-.954-.437-.5-.141-1.047-.141-1.078 0-1.718.36-.282.156-.282.343 0 .203.375.406.297.141 1.313.282 1.86.25 2.578.515.969.328 1.484 1 .516.657.516 1.407 0 1-.89 1.671-1.266.97-3.282.97-.812 0-1.5-.141-.687-.141-1.265-.407-.125.11-.282.172-.156.063-.328.063-.437 0-.703-.282-.25-.28-.25-.953v-.64q0-.672.25-.953.266-.297.688-.297.343 0 .562.187.234.188.36.64.421.376 1.015.563.61.188 1.39.188 1.298 0 2-.406.344-.204.344-.422 0-.36-.484-.594-.484-.234-2-.406-2.25-.235-3-.907-.766-.671-.766-1.64 0-1 .86-1.672 1.14-.906 3-.906.64 0 1.234.125.61.125 1.156.375.172-.125.313-.188.156-.062.281-.062.39 0 .64.28.25.282.25.97v.453q0 .61-.14.828-.297.422-.797.422-.328 0-.593-.203-.25-.22-.329-.563zm8.726-.328v3.75q0 .594.25.781.375.313 1.36.313 1.437 0 2.64-.61.469-.234.735-.234.359 0 .625.266.265.265.265.672 0 .359-.281.625-.453.421-1.766.78-1.312.36-2.218.36-1.735 0-2.61-.75-.875-.75-.875-1.844v-4.109H71.6q-.672 0-.968-.25-.282-.266-.282-.687 0-.407.282-.657.296-.265.968-.265h.672v-1.688q0-.672.266-.953.265-.297.672-.297.422 0 .672.297.265.281.265.953v1.688H77.6q.672 0 .953.265.297.25.297.672 0 .406-.297.672-.28.25-.953.25h-3.453z"/><path fill="none" d="M231.213 229.795h115.559v42.96h-115.56z"/><path fill="#000" d="M253.48 244.903v3.984q.578-.36 1.171-.515.61-.172 1.22-.172.952 0 1.702.328.766.328 1.266 1.031.5.703.5 1.781v3.5q.703 0 .922.14.437.282.437.813 0 .407-.281.672-.281.25-.953.25h-2.125q-.672 0-.969-.25-.281-.265-.281-.687 0-.516.437-.797.235-.14.938-.14v-3.376q0-.718-.328-1.015-.438-.391-1.266-.391-.625 0-1.11.25-.468.234-1.28 1.047v3.484q.718 0 .921.14.453.282.453.813 0 .407-.296.672-.282.25-.954.25h-2.125q-.671 0-.968-.25-.282-.265-.282-.687 0-.516.454-.797.218-.14.921-.14v-8.079h-.312q-.672 0-.969-.25-.281-.265-.281-.687 0-.407.281-.657.297-.265.969-.265h2.187zm17.804 8.625h-7.656q.297.734 1.031 1.187.75.438 2.016.438 1.031 0 2.75-.453.719-.188.984-.188.375 0 .625.266.266.265.266.672 0 .359-.281.625-.36.328-1.781.64-1.407.297-2.704.297-2.25 0-3.593-1.265-1.344-1.266-1.344-3.11 0-1.969 1.453-3.203 1.453-1.234 3.36-1.234 1.14 0 2.078.406.953.39 1.421.86.657.671 1.094 1.671.281.688.281 1.594v.797zm-2.062-1.875q-.438-.797-1.125-1.188-.688-.406-1.64-.406-.954 0-1.657.406-.687.39-1.125 1.188h5.547zm10.258 5.062v-.437q-.703.375-1.562.562-.844.188-1.532.188-1.5 0-2.437-.797-.938-.797-.938-1.766 0-1.172 1.188-2.172 1.203-1.015 3.312-1.015.86 0 1.969.187v-.453q0-.422-.36-.687-.359-.266-1.374-.266-.828 0-2.157.328-.484.125-.765.125-.36 0-.625-.265-.266-.266-.266-.688 0-.234.094-.406.094-.188.25-.281.172-.11.687-.25.704-.204 1.422-.313.719-.11 1.297-.11 1.735 0 2.688.75.968.75.968 2.048v3.843h.329q.671 0 .953.266.297.266.297.687 0 .407-.297.672-.282.25-.953.25h-2.188zm0-3.343q-1.125-.22-2.078-.22-1.125 0-1.953.563-.516.344-.516.719 0 .266.25.422.453.297 1.25.297.672 0 1.516-.266.86-.265 1.531-.719v-.796zm13.805-8.47v9.938h.312q.672 0 .954.266.296.266.296.687 0 .407-.296.672-.282.25-.954.25h-2.187v-.453q-.64.375-1.344.563-.687.187-1.437.187-2.094 0-3.39-1.203-1.282-1.219-1.282-3.031 0-1.906 1.344-3.235 1.359-1.343 3.296-1.343.735 0 1.422.218.703.22 1.391.672v-2.328h-.313q-.687 0-.968-.25-.282-.265-.282-.672 0-.422.282-.672.281-.265.968-.265h2.188zm-1.875 7.923q0-1.157-.813-1.953-.812-.813-1.984-.813t-1.984.813q-.797.796-.797 1.921 0 1.032.719 1.704.734.656 2.062.656 1.328 0 2.063-.656.734-.672.734-1.672zm9.446-7.922v1.969h-2.22v-1.97h2.22zm.25 3.547v6.39h2.25q.671 0 .953.266.297.266.297.687 0 .407-.297.672-.282.25-.953.25h-6.36q-.672 0-.953-.25-.281-.265-.281-.687 0-.406.281-.672t.953-.266h2.25v-4.531h-1.5q-.672 0-.969-.25-.28-.266-.28-.687 0-.407.28-.657.297-.265.97-.265h3.359zm8.383 0v.625q.515-.438 1.125-.657.625-.218 1.343-.218 1.657 0 2.625 1.03.766.813.766 2.142v3.468q.578 0 .86.266.296.266.296.687 0 .407-.297.672-.28.25-.953.25h-1.687q-.672 0-.969-.25-.281-.265-.281-.687 0-.406.281-.672t.875-.266v-3.515q0-.61-.328-.891-.422-.375-1.281-.375-.657 0-1.141.25t-1.234 1.063v3.468q.718 0 .937.14.438.282.438.813 0 .407-.282.672-.28.25-.968.25h-2.11q-.687 0-.969-.25-.28-.265-.28-.687 0-.516.437-.797.218-.14.937-.14v-4.532q-.594 0-.875-.266-.281-.265-.281-.671 0-.407.281-.657.281-.265.969-.265h1.766zm15.148.547v-.547h2.188q.672 0 .953.265.297.25.297.672 0 .406-.297.672-.281.25-.953.25h-.328v6.797q0 .984-.422 1.719-.406.734-1.266 1.265-.844.532-1.922.532h-2.11q-.687 0-.968-.266-.281-.266-.281-.672 0-.422.281-.687.281-.25.969-.25h2.047q.86 0 1.328-.47.484-.452.484-1.171v-.906q-.625.39-1.265.593-.641.204-1.313.204-1.906 0-3.203-1.266-1.281-1.281-1.281-3.14 0-1.876 1.281-3.141 1.297-1.282 3.203-1.282.703 0 1.344.204.64.203 1.234.625zm-.015 3.578q0-1.032-.766-1.782-.75-.75-1.812-.75-1.079 0-1.844.75-.75.75-.75 1.782 0 1.047.75 1.797.765.75 1.844.75 1.062 0 1.812-.75.766-.75.766-1.797z"/><path fill="none" d="M57.748 157.858c0 17.985.016 26.977.032 35.969.015 8.992.031 17.984.031 35.968"/><path stroke="#000" stroke-linejoin="round" stroke-linecap="butt" d="M57.748 157.858c0 17.985.016 26.977.032 35.969.015 8.992.031 17.984.031 35.968"/><path fill="none" d="M288.93 157.858c0 17.985.015 26.977.03 35.969.016 8.992.032 17.984.032 35.968"/><path stroke="#000" stroke-linejoin="round" stroke-linecap="butt" d="M288.93 157.858c0 17.985.015 26.977.03 35.969.016 8.992.032 17.984.032 35.968"/></svg>
