<svg height="42.486" viewBox="-0.239 -0.228 261.928 31.865" width="349.237" xmlns="http://www.w3.org/2000/svg" xmlns:xlink="http://www.w3.org/1999/xlink"><defs><path d="M2.2-.574a.584.584 0 00-.574-.586.584.584 0 00-.586.574c0 .347.287.586.574.586A.584.584 0 002.2-.574z" id="u"/><path d="M2.331.048c0-.694-.227-1.208-.717-1.208-.383 0-.574.311-.574.574S1.22 0 1.626 0a.531.531 0 00.394-.155c.024-.024.036-.024.048-.024.024 0 .024.167.024.227 0 .394-.072 1.171-.765 1.949-.131.143-.131.167-.131.19 0 .06.06.12.12.12.095 0 1.015-.884 1.015-2.26z" id="k"/><path d="M4.674-4.495c-.227 0-.334 0-.502.143a.635.635 0 00-.203.43c0 .24.18.383.407.383.287 0 .61-.239.61-.717 0-.574-.55-1.016-1.376-1.016-1.566 0-3.132 1.71-3.132 3.407C.478-.825 1.124.12 2.343.12c1.626 0 2.654-1.268 2.654-1.423 0-.072-.071-.132-.12-.132-.035 0-.047.012-.155.12C3.957-.3 2.822-.12 2.367-.12c-.825 0-1.088-.717-1.088-1.315 0-.418.203-1.578.634-2.39.31-.563.956-1.208 1.71-1.208.155 0 .812.024 1.051.538z" id="i"/><path d="M3.885 2.905c0-.036 0-.06-.203-.263-1.195-1.207-1.865-3.18-1.865-5.619 0-2.32.562-4.316 1.949-5.726.12-.108.12-.132.12-.168 0-.071-.06-.095-.108-.095-.156 0-1.136.86-1.722 2.032-.61 1.207-.884 2.487-.884 3.957 0 1.064.167 2.487.789 3.766.705 1.435 1.685 2.212 1.817 2.212.048 0 .107-.024.107-.096z" id="h"/><path d="M3.371-2.977c0-.908-.12-2.39-.789-3.778C1.877-8.189.897-8.966.765-8.966c-.048 0-.107.024-.107.095 0 .036 0 .06.203.263 1.195 1.208 1.865 3.18 1.865 5.62 0 2.319-.562 4.315-1.949 5.726-.12.107-.12.131-.12.167 0 .072.06.096.108.096C.921 3 1.901 2.14 2.487.968c.61-1.22.884-2.51.884-3.945z" id="m"/><path d="M4.77-2.762h3.3c.167 0 .382 0 .382-.215 0-.227-.203-.227-.382-.227h-3.3v-3.3c0-.167 0-.382-.215-.382-.227 0-.227.203-.227.382v3.3h-3.3c-.167 0-.382 0-.382.215 0 .227.203.227.382.227h3.3v3.3c0 .167 0 .383.215.383.227 0 .227-.204.227-.383v-3.3z" id="s"/><path d="M5.356-3.826c0-.992-.06-1.96-.49-2.869-.49-.992-1.351-1.255-1.937-1.255-.693 0-1.542.347-1.985 1.339C.61-5.858.49-5.117.49-3.826c0 1.16.084 2.033.514 2.882A2.126 2.126 0 002.917.25c1.04 0 1.638-.622 1.985-1.315.43-.897.454-2.068.454-2.762zM2.917.012c-.382 0-1.16-.215-1.387-1.518C1.4-2.224 1.4-3.132 1.4-3.97c0-.98 0-1.865.191-2.57.203-.801.813-1.172 1.327-1.172.454 0 1.148.275 1.375 1.303.155.681.155 1.626.155 2.439 0 .8 0 1.71-.131 2.439C4.089-.215 3.336.012 2.917.012z" id="t"/><path d="M1.53-6.85c.514.167.933.179 1.064.179 1.351 0 2.212-.992 2.212-1.16 0-.047-.024-.107-.096-.107-.024 0-.047 0-.155.048A3.929 3.929 0 013-7.568c-.79 0-1.351-.239-1.578-.334-.084-.036-.108-.036-.12-.036-.096 0-.096.071-.096.263v3.55c0 .216 0 .287.144.287.06 0 .072-.012.191-.155.335-.49.897-.777 1.495-.777.633 0 .944.586 1.04.789.203.466.215 1.052.215 1.506s0 1.136-.335 1.674c-.263.43-.73.73-1.255.73A1.848 1.848 0 01.92-1.483c.06.023.131.035.19.035.204 0 .527-.12.527-.526 0-.334-.227-.526-.526-.526-.215 0-.526.108-.526.574 0 1.016.813 2.176 2.14 2.176 1.35 0 2.534-1.136 2.534-2.654 0-1.423-.956-2.606-2.211-2.606-.682 0-1.208.299-1.519.633V-6.85z" id="v"/><path d="M8.07-3.873c.167 0 .382 0 .382-.216 0-.227-.203-.227-.382-.227H1.028c-.167 0-.382 0-.382.215 0 .228.203.228.382.228H8.07zm0 2.223c.167 0 .382 0 .382-.215 0-.227-.203-.227-.382-.227H1.028c-.167 0-.382 0-.382.215 0 .227.203.227.382.227H8.07z" id="n"/><path d="M4.615-3.192c0-.646 0-1.124-.526-1.59-.419-.383-.957-.55-1.483-.55-.98 0-1.733.646-1.733 1.423 0 .346.227.514.502.514a.47.47 0 00.49-.49c0-.49-.43-.49-.61-.49.275-.503.85-.718 1.327-.718.55 0 1.256.454 1.256 1.53v.479C1.435-3.05.526-2.044.526-1.124c0 .945 1.1 1.244 1.83 1.244A1.63 1.63 0 003.908-.933c.048.562.419.993.933.993.25 0 .944-.168.944-1.124v-.67h-.263v.67c0 .681-.287.777-.454.777-.454 0-.454-.634-.454-.813v-2.092zm-.777 1.506C3.838-.514 2.965-.12 2.45-.12c-.586 0-1.076-.43-1.076-1.004 0-1.578 2.032-1.721 2.463-1.745v1.183z" id="f"/><path d="M4.328-4.423c-.144 0-.586 0-.586.49 0 .287.203.49.49.49.275 0 .502-.167.502-.514 0-.801-.837-1.375-1.805-1.375-1.399 0-2.51 1.243-2.51 2.75C.418-1.052 1.565.12 2.916.12c1.578 0 1.937-1.435 1.937-1.543s-.084-.107-.12-.107c-.107 0-.12.036-.155.18-.263.848-.909 1.207-1.554 1.207-.73 0-1.698-.634-1.698-2.451 0-1.985 1.016-2.475 1.614-2.475.454 0 1.112.18 1.387.646z" id="a"/><path d="M2.08-7.364a.587.587 0 00-.586-.586.574.574 0 00-.573.574c0 .358.286.585.573.585.371 0 .586-.31.586-.573zM.43-5.141v.347c.766 0 .873.072.873.658v3.251c0 .538-.131.538-.908.538V0c.334-.024.908-.024 1.255-.024.131 0 .825 0 1.231.024v-.347c-.777 0-.825-.06-.825-.526v-4.4L.43-5.14z" id="w"/><path d="M2.056-8.297l-1.661.132v.346c.812 0 .908.084.908.67v6.264c0 .538-.131.538-.908.538V0c.334-.024.92-.024 1.279-.024s.956 0 1.29.024v-.347c-.764 0-.908 0-.908-.538v-7.412z" id="q"/><path d="M8.572-2.905c0-1.112 0-1.447-.275-1.83-.347-.465-.909-.537-1.315-.537-.992 0-1.495.717-1.686 1.183-.167-.92-.813-1.183-1.566-1.183-1.16 0-1.614.992-1.71 1.231h-.012v-1.231l-1.625.131v.347c.813 0 .908.084.908.67v3.24c0 .537-.131.537-.908.537V0c.31-.024.956-.024 1.29-.024.347 0 .993 0 1.304.024v-.347c-.765 0-.909 0-.909-.538v-2.223c0-1.256.825-1.925 1.566-1.925s.909.61.909 1.339v2.81c0 .537-.132.537-.909.537V0c.311-.024.957-.024 1.292-.024.346 0 .992 0 1.303.024v-.347c-.765 0-.909 0-.909-.538v-2.223c0-1.256.825-1.925 1.566-1.925s.909.61.909 1.339v2.81c0 .537-.132.537-.909.537V0c.311-.024.957-.024 1.291-.024.347 0 .993 0 1.303.024v-.347c-.597 0-.896 0-.908-.358v-2.2z" id="o"/><path d="M5.32-2.905c0-1.112 0-1.447-.275-1.83-.347-.465-.909-.537-1.315-.537-1.16 0-1.614.992-1.71 1.231h-.012v-1.231l-1.625.131v.347c.813 0 .908.084.908.67v3.24c0 .537-.131.537-.908.537V0c.31-.024.956-.024 1.29-.024.347 0 .993 0 1.304.024v-.347c-.765 0-.909 0-.909-.538v-2.223c0-1.256.825-1.925 1.566-1.925s.909.61.909 1.339v2.81c0 .537-.132.537-.909.537V0c.311-.024.957-.024 1.292-.024.346 0 .992 0 1.303.024v-.347c-.598 0-.897 0-.909-.358v-2.2z" id="c"/><path d="M5.487-2.558c0-1.543-1.171-2.774-2.558-2.774-1.435 0-2.57 1.267-2.57 2.774C.359-1.028 1.554.12 2.917.12c1.41 0 2.57-1.172 2.57-2.678zM2.93-.143c-.442 0-.98-.192-1.327-.778-.323-.538-.335-1.243-.335-1.745 0-.454 0-1.184.37-1.722.336-.514.862-.705 1.28-.705.466 0 .968.215 1.291.682.37.55.37 1.303.37 1.745 0 .418 0 1.16-.31 1.722a1.558 1.558 0 01-1.339.8z" id="b"/><path d="M1.997-2.786c0-1.16.478-2.247 1.398-2.247.096 0 .12 0 .168.012-.096.048-.287.12-.287.442 0 .347.275.478.466.478.24 0 .478-.155.478-.478 0-.358-.323-.693-.837-.693-1.016 0-1.363 1.1-1.434 1.327h-.012v-1.327l-1.602.131v.347c.813 0 .908.084.908.67v3.24c0 .537-.131.537-.908.537V0c.334-.024.992-.024 1.35-.024.323 0 1.172 0 1.447.024v-.347h-.239c-.873 0-.896-.131-.896-.562v-1.877z" id="e"/><path d="M3.921-5.057c0-.215 0-.275-.12-.275-.095 0-.322.263-.406.37-.37-.298-.741-.37-1.124-.37-1.446 0-1.876.789-1.876 1.447 0 .131 0 .55.454.968.382.335.789.418 1.339.526.657.131.813.167 1.112.406.215.18.37.443.37.778 0 .514-.299 1.087-1.35 1.087C1.53-.12.955-.574.692-1.77c-.047-.215-.047-.227-.06-.238-.023-.048-.071-.048-.107-.048-.131 0-.131.06-.131.275v1.626c0 .215 0 .275.12.275.059 0 .07-.012.274-.263.06-.084.06-.108.24-.3C1.481.12 2.127.12 2.33.12c1.256 0 1.877-.694 1.877-1.638 0-.646-.394-1.028-.502-1.136-.43-.37-.753-.442-1.542-.586-.359-.072-1.231-.239-1.231-.956 0-.37.25-.92 1.327-.92 1.303 0 1.374 1.111 1.398 1.482.012.095.096.095.132.095.131 0 .131-.06.131-.275v-1.243z" id="g"/><path d="M2.008-4.806h1.686v-.347H2.008v-2.2h-.263C1.733-6.228 1.303-5.08.215-5.044v.239h1.016v3.324C1.231-.155 2.116.12 2.75.12c.753 0 1.147-.742 1.147-1.602v-.682h-.263v.658c0 .86-.346 1.363-.813 1.363-.813 0-.813-1.112-.813-1.316v-3.347z" id="d"/><path d="M3.634-5.14v.346c.813 0 .909.084.909.67v2.14c0 1.016-.538 1.864-1.435 1.864-.98 0-1.04-.561-1.04-1.195v-3.957l-1.685.131v.347c.908 0 .908.036.908 1.1v1.793c0 .741 0 1.172.359 1.566.287.311.777.455 1.387.455.203 0 .585 0 .992-.347.347-.275.538-.73.538-.73V.12L6.229 0v-.347c-.813 0-.909-.083-.909-.67v-4.255l-1.686.131z" id="r"/><path d="M3.347-2.821c.347-.455.85-1.1 1.076-1.351.49-.55 1.052-.634 1.435-.634v-.347c-.514.024-.538.024-1.004.024-.455 0-.478 0-1.076-.024v.347c.155.024.347.096.347.37 0 .204-.108.335-.18.431l-.765.968-.932-1.231c-.036-.048-.108-.155-.108-.24 0-.07.06-.286.418-.298v-.347c-.298.024-.908.024-1.231.024-.394 0-.418 0-1.148-.024v.347c.61 0 .837.024 1.088.347L2.666-2.63c.024.024.072.095.072.131S1.805-1.29 1.686-1.136C1.16-.49.634-.359.12-.346V0c.454-.024.478-.024.992-.024.454 0 .478 0 1.076.024v-.347c-.287-.036-.335-.215-.335-.382 0-.192.084-.287.203-.443.18-.25.574-.74.861-1.111l.98 1.279c.204.263.204.287.204.358 0 .096-.096.287-.419.3V0c.311-.024.897-.024 1.232-.024.394 0 .418 0 1.135.024v-.347c-.633 0-.849-.024-1.135-.406L3.347-2.821z" id="p"/><path d="M2.503-5.077c0-.215-.016-.223-.232-.223-.326.319-.749.51-1.506.51v.263c.215 0 .646 0 1.108-.215v4.088c0 .295-.024.391-.781.391H.813V0c.327-.024 1.012-.024 1.37-.024s1.053 0 1.38.024v-.263h-.28c-.756 0-.78-.096-.78-.39v-4.424z" id="j"/><path d="M2.248-1.626c.127-.12.462-.382.59-.494.494-.454.964-.893.964-1.618 0-.948-.797-1.562-1.794-1.562-.956 0-1.586.725-1.586 1.434 0 .391.311.447.423.447a.41.41 0 00.414-.423c0-.414-.398-.414-.494-.414a1.232 1.232 0 011.156-.781c.741 0 1.124.63 1.124 1.299 0 .829-.582 1.435-1.523 2.399L.518-.303C.422-.215.422-.199.422 0h3.149l.23-1.427h-.246c-.024.16-.088.558-.184.71-.047.063-.653.063-.78.063H1.17l1.077-.972z" id="l"/></defs><g transform="matrix(1.13 0 0 1.13 -63.986 -61.058)"><use x="56.413" xlink:href="#a" y="70.852"/><use x="61.596" xlink:href="#b" y="70.852"/><use x="67.428" xlink:href="#c" y="70.852"/><use x="73.582" xlink:href="#d" y="70.852"/><use x="78.117" xlink:href="#e" y="70.852"/><use x="82.652" xlink:href="#f" y="70.852"/><use x="88.483" xlink:href="#g" y="70.852"/><use x="93.083" xlink:href="#d" y="70.852"/><use x="97.774" xlink:href="#h" y="70.852"/><use x="102.31" xlink:href="#i" y="70.852"/><use x="107.329" xlink:href="#j" y="72.646"/><use x="112.061" xlink:href="#k" y="70.852"/><use x="117.293" xlink:href="#i" y="70.852"/><use x="122.312" xlink:href="#l" y="72.646"/><use x="127.045" xlink:href="#m" y="70.852"/><use x="134.901" xlink:href="#n" y="70.852"/><use x="148.488" xlink:href="#o" y="62.765"/><use x="158.206" xlink:href="#f" y="62.765"/><use x="164.037" xlink:href="#p" y="62.765"/><use x="172.266" xlink:href="#h" y="62.765"/><use x="176.802" xlink:href="#q" y="62.765"/><use x="180.041" xlink:href="#r" y="62.765"/><use x="186.52" xlink:href="#o" y="62.765"/><use x="200.214" xlink:href="#i" y="62.765"/><use x="205.233" xlink:href="#j" y="64.558"/><use x="209.965" xlink:href="#k" y="62.765"/><use x="215.197" xlink:href="#q" y="62.765"/><use x="218.437" xlink:href="#r" y="62.765"/><use x="224.916" xlink:href="#o" y="62.765"/><use x="238.609" xlink:href="#i" y="62.765"/><use x="243.628" xlink:href="#l" y="64.558"/><use x="248.361" xlink:href="#m" y="62.765"/><use x="255.636" xlink:href="#s" y="62.765"/><use x="267.364" xlink:href="#t" y="62.765"/><use x="273.195" xlink:href="#u" y="62.765"/><use x="276.434" xlink:href="#t" y="62.765"/><use x="282.265" xlink:href="#v" y="62.765"/><path d="M148.488 67.624h139.721v.478H148.488z"/><use x="149.626" xlink:href="#o" y="79.053"/><use x="159.344" xlink:href="#w" y="79.053"/><use x="162.584" xlink:href="#c" y="79.053"/><use x="171.128" xlink:href="#h" y="79.053"/><use x="175.664" xlink:href="#q" y="79.053"/><use x="178.903" xlink:href="#r" y="79.053"/><use x="185.382" xlink:href="#o" y="79.053"/><use x="199.076" xlink:href="#i" y="79.053"/><use x="204.095" xlink:href="#j" y="80.846"/><use x="208.827" xlink:href="#k" y="79.053"/><use x="214.059" xlink:href="#q" y="79.053"/><use x="217.299" xlink:href="#r" y="79.053"/><use x="223.778" xlink:href="#o" y="79.053"/><use x="237.471" xlink:href="#i" y="79.053"/><use x="242.49" xlink:href="#l" y="80.846"/><use x="247.223" xlink:href="#m" y="79.053"/><use x="254.498" xlink:href="#s" y="79.053"/><use x="266.226" xlink:href="#t" y="79.053"/><use x="272.057" xlink:href="#u" y="79.053"/><use x="275.296" xlink:href="#t" y="79.053"/><use x="281.127" xlink:href="#v" y="79.053"/></g></svg>
