<svg viewBox="0 0 346.74 387.654" fill="none" stroke-linecap="square" stroke-miterlimit="10" xmlns="http://www.w3.org/2000/svg"><path fill="none" d="M115.59 0h115.56v42.96H115.59z"/><path fill="#000" d="M143.424 21.607l6.047 3.344q.453.25.61.453.155.203.155.516 0 .39-.28.687-.282.282-.657.282-.25 0-.75-.282l-9-5 9-5.015q.5-.266.734-.266.391 0 .672.281.281.282.281.672 0 .313-.156.516t-.61.453l-6.046 3.36zm10.805-6.5v4.188q.672-.453 1.375-.672.719-.219 1.437-.219 1.938 0 3.282 1.344 1.343 1.328 1.343 3.234 0 1.813-1.28 3.032-1.282 1.203-3.391 1.203-.735 0-1.438-.188-.687-.187-1.328-.562v.453h-2.188q-.687 0-.968-.25-.282-.266-.282-.688 0-.406.282-.671.297-.266.968-.266h.313v-8.078h-.313q-.687 0-.968-.25-.282-.266-.282-.688 0-.406.282-.656.28-.266.968-.266h2.188zm5.578 7.922q0-1.156-.812-1.953-.813-.812-1.985-.812-1.172 0-1.984.812-.797.797-.797 1.922 0 1.031.719 1.703.734.656 2.062.656 1.328 0 2.063-.656.734-.672.734-1.672zm12.82-.093q0 1.078-.609 2.093-.594 1-1.781 1.594-1.172.594-2.453.594-1.266 0-2.438-.578-1.172-.594-1.78-1.594-.61-1.016-.61-2.125 0-1.125.61-2.203.624-1.078 1.78-1.688 1.172-.625 2.438-.625 1.281 0 2.453.641 1.187.625 1.781 1.703.61 1.063.61 2.188zm-1.874.015q0-.906-.641-1.656-.89-1.031-2.328-1.031-1.266 0-2.11.812-.843.813-.843 1.875 0 .875.843 1.64.86.766 2.11.766 1.265 0 2.11-.765.859-.766.859-1.64zm12.508-7.844v9.938h.312q.672 0 .953.266.297.265.297.687 0 .406-.297.672-.28.25-.953.25h-2.187v-.453q-.64.375-1.344.562-.688.188-1.438.188-2.093 0-3.39-1.203-1.281-1.219-1.281-3.032 0-1.906 1.343-3.234 1.36-1.344 3.297-1.344.735 0 1.422.22.703.218 1.39.671v-2.328h-.312q-.687 0-.969-.25-.28-.266-.28-.672 0-.422.28-.672.282-.266.97-.266h2.187zm-1.875 7.922q0-1.156-.813-1.953-.812-.812-1.984-.812t-1.985.812q-.796.797-.796 1.922 0 1.031.718 1.703.735.656 2.063.656 1.328 0 2.062-.656.735-.672.735-1.672zm7.742 3.828l-3.234-6.343q-.469-.047-.703-.297-.235-.266-.235-.625 0-.422.282-.672.296-.266.968-.266h1.703q.672 0 .954.266.296.25.296.672 0 .406-.296.672-.282.25-.907.25l2.219 4.297 2.172-4.297q-.594 0-.89-.25-.282-.266-.282-.688 0-.406.281-.656.297-.266.969-.266h1.766q.656 0 .937.266.297.25.297.672 0 .375-.25.64-.25.25-.719.282l-4.281 8.437q.688 0 .906.14.438.282.438.798 0 .406-.281.672-.282.265-.954.265h-4.078q-.672 0-.968-.265-.282-.266-.282-.672 0-.422.282-.688.296-.25.968-.25h1.86l1.062-2.094zm14.196-5.25l-6.047-3.359q-.453-.25-.61-.453-.14-.203-.14-.516 0-.39.281-.672.281-.28.672-.28.234 0 .719.265l9.015 5.015-9.015 5q-.485.282-.719.282-.39 0-.672-.282-.281-.28-.281-.687 0-.313.14-.516.157-.203.61-.453l6.047-3.344z"/><path fill="none" d="M.031 114.898h115.56v42.96H.03z"/><path fill="#000" d="M33.463 136.505l6.047 3.344q.453.25.609.453.156.203.156.516 0 .39-.281.687-.281.281-.656.281-.25 0-.75-.28l-9-5 9-5.016q.5-.266.734-.266.39 0 .672.281.281.281.281.672 0 .313-.156.516t-.61.453l-6.046 3.36zm11.258-2.953v.625q.515-.437 1.125-.656.625-.219 1.344-.219 1.656 0 2.625 1.031.765.813.765 2.14v3.47q.578 0 .86.265.296.266.296.688 0 .406-.296.672-.282.25-.954.25H48.8q-.672 0-.969-.25-.281-.266-.281-.688 0-.406.281-.672.281-.265.875-.265v-3.516q0-.61-.328-.89-.422-.376-1.281-.376-.656 0-1.14.25-.485.25-1.235 1.063v3.469q.719 0 .937.14.438.282.438.813 0 .406-.281.672-.282.25-.97.25h-2.109q-.687 0-.968-.25-.282-.266-.282-.688 0-.515.438-.797.219-.14.937-.14v-4.532q-.593 0-.875-.265-.28-.266-.28-.672t.28-.656q.282-.266.97-.266h1.765zm14.773 8.266v-.438q-.703.375-1.562.563-.844.187-1.531.187-1.5 0-2.438-.797-.937-.797-.937-1.765 0-1.172 1.187-2.172 1.203-1.016 3.313-1.016.86 0 1.968.188v-.453q0-.422-.359-.688-.36-.266-1.375-.266-.828 0-2.156.329-.485.125-.766.125-.36 0-.625-.266t-.265-.688q0-.234.093-.406.094-.187.25-.281.172-.11.688-.25.703-.203 1.422-.313.718-.109 1.297-.109 1.734 0 2.687.75.969.75.969 2.047v3.844h.328q.672 0 .953.265.297.266.297.688 0 .406-.297.672-.281.25-.953.25h-2.188zm0-3.344q-1.125-.219-2.078-.219-1.125 0-1.953.563-.515.343-.515.718 0 .266.25.422.453.297 1.25.297.671 0 1.515-.265.86-.266 1.531-.72v-.796zm9.524 1.078l2.016-4.14q-.75 0-.953-.126-.453-.28-.453-.812 0-.406.28-.656.282-.266.954-.266h2.562q.672 0 .954.266.296.25.296.672 0 .406-.296.671-.282.25-.954.25h-.312l-3.11 6.407H68.05l-3.125-6.407h-.265q-.672 0-.969-.25-.281-.265-.281-.687 0-.406.281-.656.297-.266.969-.266h2.5q.672 0 .953.266.281.25.281.672 0 .515-.422.78-.218.141-.984.141l2.031 4.141zm13.149-3.047l-6.047-3.36q-.453-.25-.61-.452-.14-.203-.14-.516 0-.39.281-.672.282-.281.672-.281.235 0 .719.266l9.016 5.015-9.016 5q-.484.281-.719.281-.39 0-.672-.28-.281-.282-.281-.688 0-.313.14-.516.157-.203.61-.453l6.047-3.344z"/><path fill="none" d="M231.15 114.898h115.559v42.96h-115.56z"/><path fill="#000" d="M247.787 136.505l6.047 3.344q.453.25.61.453.156.203.156.516 0 .39-.281.687-.282.281-.657.281-.25 0-.75-.28l-9-5 9-5.016q.5-.266.735-.266.39 0 .672.281.281.281.281.672 0 .313-.156.516-.157.203-.61.453l-6.047 3.36zm11.227-6.5v3.985q.578-.36 1.172-.516.61-.172 1.219-.172.953 0 1.703.328.766.328 1.266 1.031.5.704.5 1.782v3.5q.703 0 .922.14.437.282.437.813 0 .406-.281.672-.281.25-.953.25h-2.125q-.672 0-.97-.25-.28-.266-.28-.688 0-.515.437-.797.235-.14.938-.14v-3.375q0-.72-.328-1.016-.438-.39-1.266-.39-.625 0-1.11.25-.468.234-1.28 1.046v3.485q.718 0 .921.14.453.282.453.813 0 .406-.297.672-.28.25-.953.25h-2.125q-.672 0-.968-.25-.282-.266-.282-.688 0-.515.453-.797.22-.14.922-.14v-8.078h-.312q-.672 0-.969-.25-.281-.266-.281-.688 0-.406.281-.656.297-.266.969-.266h2.187zm17.805 8.625h-7.656q.297.735 1.031 1.188.75.437 2.016.437 1.031 0 2.75-.453.719-.187.984-.187.375 0 .625.265.266.266.266.672 0 .36-.281.625-.36.328-1.782.64-1.406.298-2.703.298-2.25 0-3.594-1.266-1.343-1.266-1.343-3.11 0-1.968 1.453-3.203 1.453-1.234 3.36-1.234 1.14 0 2.077.406.953.39 1.422.86.656.672 1.094 1.672.281.687.281 1.593v.797zm-2.062-1.875q-.438-.797-1.125-1.187-.688-.407-1.64-.407-.954 0-1.657.407-.688.39-1.125 1.187h5.547zm10.258 5.063v-.438q-.703.375-1.563.563-.843.187-1.53.187-1.5 0-2.438-.797-.938-.797-.938-1.765 0-1.172 1.188-2.172 1.203-1.016 3.312-1.016.86 0 1.969.188v-.453q0-.422-.36-.688-.359-.266-1.375-.266-.828 0-2.156.329-.484.125-.765.125-.36 0-.625-.266-.266-.266-.266-.688 0-.234.094-.406.093-.187.25-.281.172-.11.687-.25.703-.203 1.422-.313.719-.109 1.297-.109 1.734 0 2.687.75.97.75.97 2.047v3.844h.327q.672 0 .953.265.297.266.297.688 0 .406-.297.672-.28.25-.953.25h-2.187zm0-3.344q-1.125-.219-2.078-.219-1.125 0-1.953.563-.516.343-.516.718 0 .266.25.422.453.297 1.25.297.672 0 1.516-.265.859-.266 1.53-.72v-.796zm13.805-8.469v9.938h.312q.672 0 .953.265.297.266.297.688 0 .406-.297.672-.28.25-.953.25h-2.187v-.453q-.64.375-1.344.562-.687.188-1.437.188-2.094 0-3.391-1.204-1.281-1.218-1.281-3.03 0-1.907 1.343-3.235 1.36-1.344 3.297-1.344.735 0 1.422.219.703.219 1.39.672v-2.328h-.312q-.687 0-.968-.25-.282-.266-.282-.672 0-.422.282-.672.28-.266.968-.266h2.188zm-1.875 7.922q0-1.156-.813-1.953-.812-.813-1.984-.813t-1.984.813q-.797.797-.797 1.922 0 1.031.718 1.703.735.656 2.063.656 1.328 0 2.062-.656.735-.672.735-1.672zm13.46.703h-7.655q.297.735 1.03 1.188.75.437 2.017.437 1.03 0 2.75-.453.718-.187.984-.187.375 0 .625.265.266.266.266.672 0 .36-.282.625-.36.328-1.78.64-1.407.298-2.704.298-2.25 0-3.594-1.266-1.344-1.266-1.344-3.11 0-1.968 1.454-3.203 1.453-1.234 3.359-1.234 1.14 0 2.078.406.953.39 1.422.86.656.672 1.094 1.672.28.687.28 1.593v.797zm-2.062-1.875q-.437-.797-1.125-1.187-.687-.407-1.64-.407-.953 0-1.656.407-.688.39-1.125 1.187h5.546zm8.18-3.203v1.156q1.188-.843 1.86-1.125.687-.281 1.265-.281.922 0 1.782.672.578.453.578.922 0 .406-.281.687-.282.282-.672.282-.344 0-.735-.344-.375-.36-.672-.36-.39 0-1.171.5-.782.485-1.954 1.47v2.812h2.672q.672 0 .953.265.297.266.297.688 0 .406-.297.672-.28.25-.953.25h-5.64q-.672 0-.97-.25-.28-.266-.28-.688 0-.406.28-.672.298-.265.97-.265h1.109v-4.532h-.672q-.672 0-.969-.25-.28-.265-.28-.687 0-.406.28-.656.297-.266.97-.266h2.53zm13.555 2.953l-6.047-3.36q-.453-.25-.609-.452-.14-.203-.14-.516 0-.39.28-.672.282-.281.673-.281.234 0 .718.266l9.016 5.015-9.016 5q-.484.281-.718.281-.391 0-.672-.28-.282-.282-.282-.688 0-.313.141-.516.156-.203.61-.453l6.046-3.344z"/><path fill="none" d="M115.59 229.795h115.56v42.96H115.59z"/><path fill="#000" d="M143.424 251.403l6.047 3.344q.453.25.61.453.155.203.155.515 0 .39-.28.688-.282.281-.657.281-.25 0-.75-.281l-9-5 9-5.016q.5-.265.734-.265.391 0 .672.28.281.282.281.673 0 .312-.156.515t-.61.453l-6.046 3.36zm10.274-2.953v.515q.453-.437.812-.61.375-.171.86-.171.406 0 .812.203t.781.61q.485-.407.97-.594.5-.203 1.03-.203 1.032 0 1.688.547.844.734.844 1.921v4.172q.593 0 .875.266.28.266.28.687 0 .407-.28.672-.282.25-.954.25h-1.78v-5.89q0-.438-.157-.594-.156-.172-.469-.172-.312 0-.578.172-.344.219-.828.86v3.75q.594 0 .875.265.281.266.281.687 0 .407-.281.672-.281.25-.953.25h-1.781v-5.89q0-.422-.157-.594-.156-.172-.484-.172-.328 0-.656.219-.313.203-.75.812v3.75q.578 0 .86.266.296.266.296.687 0 .407-.297.672-.281.25-.953.25h-1.688q-.671 0-.953-.25-.297-.265-.297-.687 0-.406.282-.672.28-.266.875-.266v-4.531q-.594 0-.875-.266-.282-.265-.282-.671 0-.407.297-.657.282-.265.953-.265h1.782zm15.758 8.265v-.437q-.703.375-1.563.562-.844.188-1.531.188-1.5 0-2.438-.797-.937-.797-.937-1.766 0-1.172 1.187-2.172 1.204-1.015 3.313-1.015.86 0 1.969.187v-.453q0-.422-.36-.687-.359-.266-1.375-.266-.828 0-2.156.328-.484.125-.766.125-.359 0-.625-.265-.265-.266-.265-.688 0-.234.094-.406.093-.188.25-.281.171-.11.687-.25.703-.204 1.422-.313.719-.11 1.297-.11 1.734 0 2.687.75.97.75.97 2.048v3.843h.327q.672 0 .953.266.297.266.297.687 0 .407-.297.672-.28.25-.953.25h-2.187zm0-3.343q-1.125-.22-2.078-.22-1.125 0-1.954.563-.515.344-.515.719 0 .266.25.422.453.297 1.25.297.672 0 1.515-.266.86-.265 1.532-.719v-.796zm10.18-8.47v1.97h-2.22v-1.97h2.22zm.25 3.548v6.39h2.25q.672 0 .953.266.297.266.297.687 0 .407-.297.672-.281.25-.953.25h-6.36q-.672 0-.953-.25-.281-.265-.281-.687 0-.406.281-.672t.953-.266h2.25v-4.531h-1.5q-.672 0-.968-.25-.282-.266-.282-.687 0-.407.282-.657.296-.265.968-.265h3.36zm8.383 0v.625q.515-.438 1.125-.657.625-.218 1.344-.218 1.656 0 2.625 1.03.765.813.765 2.142v3.468q.578 0 .86.266.296.266.296.687 0 .407-.296.672-.282.25-.954.25h-1.687q-.672 0-.969-.25-.281-.265-.281-.687 0-.406.281-.672t.875-.266v-3.515q0-.61-.328-.891-.422-.375-1.281-.375-.656 0-1.14.25-.485.25-1.235 1.063v3.468q.719 0 .937.14.438.282.438.813 0 .407-.281.672-.282.25-.97.25h-2.109q-.687 0-.968-.25-.282-.265-.282-.687 0-.516.438-.797.219-.14.937-.14v-4.532q-.593 0-.875-.266-.28-.265-.28-.671 0-.407.28-.657.282-.265.97-.265h1.765zm15.055 2.953l-6.047-3.36q-.453-.25-.61-.453-.14-.203-.14-.515 0-.391.281-.672t.672-.281q.234 0 .719.265l9.015 5.016-9.015 5q-.485.281-.719.281-.39 0-.672-.281-.281-.281-.281-.688 0-.312.14-.515.157-.203.61-.453l6.047-3.344z"/><path fill="none" d="M173.37 42.96c0 17.985-28.89 26.977-57.78 35.97-28.89 8.991-57.779 17.983-57.779 35.968"/><path stroke="#000" stroke-linejoin="round" stroke-linecap="butt" d="M173.37 42.96c0 17.985-28.89 26.977-57.78 35.97-28.89 8.991-57.779 17.983-57.779 35.968"/><path fill="none" d="M173.37 42.96c0 17.985 28.89 26.977 57.78 35.97 28.89 8.991 57.78 17.983 57.78 35.968"/><path stroke="#000" stroke-linejoin="round" stroke-linecap="butt" d="M173.37 42.96c0 17.985 28.89 26.977 57.78 35.97 28.89 8.991 57.78 17.983 57.78 35.968"/><path fill="none" d="M173.37 42.96c0 46.71.016 70.064.032 93.418.015 23.354.031 46.709.031 93.417"/><path stroke="#000" stroke-linejoin="round" stroke-linecap="butt" d="M173.37 42.96c0 46.71.016 70.064.032 93.418.015 23.354.031 46.709.031 93.417"/><path fill="none" d="M115.59 344.693h115.56v42.96H115.59z"/><path fill="#000" d="M160.217 366.3l6.047 3.344q.453.25.61.453.156.203.156.516 0 .39-.281.687-.282.282-.657.282-.25 0-.75-.282l-9-5 9-5.015q.5-.266.735-.266.39 0 .672.281.28.282.28.672 0 .313-.155.516-.157.203-.61.453l-6.047 3.36zm10.837 4.282v3.062h1.125q.671 0 .953.25.28.266.28.688 0 .406-.28.672-.282.265-.953.265h-3.313q-.672 0-.969-.265-.281-.266-.281-.672 0-.422.281-.688.297-.25.969-.25h.313v-8.437h-.313q-.672 0-.969-.25-.281-.266-.281-.688 0-.406.281-.656.297-.266.969-.266h2.188v.625q.656-.437 1.359-.656.703-.219 1.437-.219 1.907 0 3.25 1.297 1.36 1.297 1.36 2.969 0 1.86-1.594 3.062-1.328 1-3 1-.719 0-1.422-.203-.703-.218-1.39-.64zm5.53-3.203q0-.391-.312-1-.297-.61-.937-1.016-.64-.406-1.516-.406-1.39 0-2.219 1.047-.546.734-.546 1.39 0 .75.796 1.453.797.703 1.97.703 1.187 0 1.968-.703.797-.703.797-1.468zm9.946-1.079l-6.047-3.359q-.453-.25-.609-.453-.14-.203-.14-.516 0-.39.28-.672.282-.28.673-.28.234 0 .718.265l9.016 5.015-9.016 5q-.484.282-.718.282-.391 0-.672-.282-.282-.28-.282-.687 0-.313.141-.516.156-.203.61-.453l6.046-3.344z"/><path fill="none" d="M0 344.693h115.559v42.96H0z"/><path fill="#000" d="M33.431 366.3l6.047 3.344q.453.25.61.453.156.203.156.516 0 .39-.282.687-.28.282-.656.282-.25 0-.75-.282l-9-5 9-5.015q.5-.266.735-.266.39 0 .671.281.282.282.282.672 0 .313-.157.516-.156.203-.609.453l-6.047 3.36zm17.446-6.5v9.938h.312q.672 0 .953.266.297.265.297.687 0 .406-.297.672-.28.25-.953.25h-2.187v-.453q-.64.375-1.344.562-.687.188-1.437.188-2.094 0-3.391-1.203-1.281-1.22-1.281-3.032 0-1.906 1.343-3.234 1.36-1.344 3.297-1.344.735 0 1.422.219.703.219 1.39.672v-2.328h-.312q-.687 0-.968-.25-.282-.266-.282-.672 0-.422.282-.672.28-.266.968-.266h2.188zm-1.875 7.922q0-1.156-.813-1.953-.812-.812-1.984-.812t-1.984.812q-.797.797-.797 1.922 0 1.031.718 1.703.735.656 2.063.656 1.328 0 2.062-.656.735-.672.735-1.672zm9.445-7.922v1.97H56.23v-1.97h2.218zm.25 3.547v6.39h2.25q.672 0 .953.267.297.265.297.687 0 .406-.297.672-.28.25-.953.25h-6.359q-.672 0-.953-.25-.281-.266-.281-.688 0-.406.28-.671.282-.266.954-.266h2.25v-4.531h-1.5q-.672 0-.969-.25-.281-.266-.281-.688 0-.406.281-.656.297-.266.969-.266h3.36zm10.29 6l2.015-4.14q-.75 0-.953-.125-.453-.282-.453-.813 0-.406.281-.656.282-.266.953-.266h2.563q.672 0 .953.266.297.25.297.672 0 .406-.297.672-.281.25-.953.25h-.313l-3.109 6.406h-1.953l-3.125-6.406h-.266q-.672 0-.968-.25-.282-.266-.282-.688 0-.406.282-.656.296-.266.968-.266h2.5q.672 0 .953.266.282.25.282.672 0 .515-.422.781-.219.14-.985.14l2.032 4.141zm13.148-3.047l-6.046-3.359q-.454-.25-.61-.453-.14-.203-.14-.516 0-.39.28-.672.282-.28.673-.28.234 0 .718.265l9.016 5.015-9.016 5q-.484.282-.718.282-.391 0-.672-.282-.281-.28-.281-.687 0-.313.14-.516.156-.203.61-.453l6.046-3.344z"/><path fill="none" d="M231.181 344.693h115.56v42.96H231.18z"/><path fill="#000" d="M279.183 370.675q0 .532-.375.891-.36.344-1.016.344t-1.031-.344q-.375-.36-.375-.89 0-.532.375-.876.375-.359 1.031-.359.657 0 1.016.36.375.343.375.874zm11.195 0q0 .532-.375.891-.359.344-1.015.344-.656 0-1.031-.344-.375-.36-.375-.89 0-.532.375-.876.375-.359 1.03-.359.657 0 1.016.36.375.343.375.874zm11.196 0q0 .532-.375.891-.36.344-1.016.344t-1.03-.344q-.376-.36-.376-.89 0-.532.375-.876.375-.359 1.031-.359.657 0 1.016.36.375.343.375.874z"/><path fill="none" d="M173.37 272.756c0 17.984-28.898 26.976-57.795 35.968-28.898 8.993-57.795 17.985-57.795 35.969"/><path stroke="#000" stroke-linejoin="round" stroke-linecap="butt" d="M173.37 272.756c0 17.984-28.898 26.976-57.795 35.968-28.898 8.993-57.795 17.985-57.795 35.969"/><path fill="none" d="M173.37 272.756c0 17.984 28.898 26.976 57.795 35.968 28.898 8.993 57.796 17.985 57.796 35.969"/><path stroke="#000" stroke-linejoin="round" stroke-linecap="butt" d="M173.37 272.756c0 17.984 28.898 26.976 57.795 35.968 28.898 8.993 57.796 17.985 57.796 35.969"/><path fill="none" d="M173.37 272.756c0 17.984.016 26.976.032 35.968.015 8.993.031 17.985.031 35.969"/><path stroke="#000" stroke-linejoin="round" stroke-linecap="butt" d="M173.37 272.756c0 17.984.016 26.976.032 35.968.015 8.993.031 17.985.031 35.969"/><path fill="none" d="M.031 229.795h115.56v42.96H.03z"/><path fill="#000" d="M39.06 251.403l6.047 3.344q.454.25.61.453.156.203.156.515 0 .39-.281.688-.281.281-.656.281-.25 0-.75-.281l-9-5 9-5.016q.5-.265.734-.265.39 0 .672.28.281.282.281.673 0 .312-.156.515t-.61.453l-6.046 3.36zm17.118-2.953v6.39q.594 0 .875.266t.281.687q0 .407-.297.672-.28.25-.953.25H54.32v-.422q-.813.36-1.547.532-.719.187-1.375.187-.922 0-1.594-.375-.672-.39-1.063-1.078-.28-.5-.28-1.234v-4.016h-.329q-.672 0-.969-.25-.28-.266-.28-.687 0-.407.28-.657.297-.265.97-.265h2.187v5.547q0 .593.28.875.298.28.891.28.563 0 1.204-.218.656-.234 1.625-.812v-3.813h-.688q-.672 0-.953-.25-.281-.266-.281-.687 0-.407.281-.657.281-.265.953-.265h2.547zm8.164-3.547v9.937h2.235q.687 0 .968.266.282.266.282.687 0 .407-.282.672-.28.25-.968.25h-6.344q-.672 0-.969-.25-.281-.265-.281-.687 0-.406.281-.672.297-.266.969-.266h2.25v-8.078h-1.516q-.656 0-.953-.25-.297-.265-.297-.687 0-.407.282-.657.296-.265.968-.265h3.375zm12.227 6.5l-6.047-3.36q-.453-.25-.61-.453-.14-.203-.14-.515 0-.391.281-.672.282-.281.672-.281.235 0 .72.265l9.015 5.016-9.016 5q-.484.281-.719.281-.39 0-.672-.281-.28-.281-.28-.688 0-.312.14-.515.156-.203.61-.453l6.046-3.344z"/><path fill="none" d="M231.213 229.795h115.559v42.96h-115.56z"/><path fill="#000" d="M270.242 251.403l6.046 3.344q.454.25.61.453.156.203.156.515 0 .39-.281.688-.281.281-.656.281-.25 0-.75-.281l-9-5 9-5.016q.5-.265.734-.265.39 0 .672.28.281.282.281.673 0 .312-.156.515t-.61.453l-6.046 3.36zm11.226-6.5v3.984q.579-.36 1.172-.515.61-.172 1.219-.172.953 0 1.703.328.766.328 1.266 1.031.5.703.5 1.781v3.5q.703 0 .922.14.437.282.437.813 0 .407-.281.672-.281.25-.953.25h-2.125q-.672 0-.969-.25-.281-.265-.281-.687 0-.516.437-.797.235-.14.938-.14v-3.376q0-.718-.328-1.015-.438-.391-1.266-.391-.625 0-1.11.25-.468.234-1.28 1.047v3.484q.718 0 .921.14.453.282.453.813 0 .407-.296.672-.282.25-.954.25h-2.125q-.671 0-.968-.25-.282-.265-.282-.687 0-.516.454-.797.218-.14.921-.14v-8.079h-.312q-.672 0-.969-.25-.281-.265-.281-.687 0-.407.281-.657.297-.265.969-.265h2.187zm14.071-.281v10.218h1.89q.672 0 .954.266.297.266.297.687 0 .407-.297.672-.282.25-.953.25h-5.641q-.672 0-.969-.25-.281-.265-.281-.687 0-.406.281-.672.297-.266.969-.266h1.89v-7.781l-1.671.438q-.407.109-.61.109-.343 0-.609-.281-.25-.282-.25-.688 0-.375.187-.594.188-.218.797-.375l4.016-1.046zm12.211 6.78l-6.047-3.359q-.453-.25-.61-.453-.14-.203-.14-.515 0-.391.282-.672.28-.281.671-.281.235 0 .72.265l9.015 5.016-9.016 5q-.484.281-.719.281-.39 0-.671-.281-.282-.281-.282-.688 0-.312.14-.515.157-.203.61-.453l6.047-3.344z"/><path fill="none" d="M57.748 157.858c0 17.985.016 26.977.032 35.969.015 8.992.031 17.984.031 35.968"/><path stroke="#000" stroke-linejoin="round" stroke-linecap="butt" d="M57.748 157.858c0 17.985.016 26.977.032 35.969.015 8.992.031 17.984.031 35.968"/><path fill="none" d="M288.93 157.858c0 17.985.015 26.977.03 35.969.016 8.992.032 17.984.032 35.968"/><path stroke="#000" stroke-linejoin="round" stroke-linecap="butt" d="M288.93 157.858c0 17.985.015 26.977.03 35.969.016 8.992.032 17.984.032 35.968"/></svg>
