<svg xmlns="http://www.w3.org/2000/svg" xml:space="preserve" width="3152.83" height="509.74" viewBox="0 0 3503144.5 566377.76" fill-rule="evenodd">
  <path d="M122050.92 1.529L0 551062.44h159821.87l73286.92-296247.83 5637.46 296247.83h113876.6l147137.6-296247.83-65676.37 296247.83h158412.51L714829.35 1.529h-218169.5L349804.12 307806.87 339938.57 1.529H122050.92zm631113.19 0L733714.83 89919.04h147137.6L900865.41 1.529h-147701.3zm2334752.29 2818.54c-34501.3 985.52-74704.9 6399.37-96964.2 24522.671-32479.9 27292.5-43868.5 63037.39-56938.4 115568.55h-73005l-20858.6 94145.33h74978.2l-68213.3 314005.82h145728.3l68495.1-314005.82 81179.3 563.39-45663.4 205766.95c-12047 54106.08 7533.5 79255.38 25368.6 91326.78 39786 27828.3 158130.6 14376 158130.6 14376l22549.8-93581.9s-58245.7 6692.4-63985.1-9584.02c-3669.3-11040.4-149.3-19901.13 1409.4-29878.07l38334.6-178989.13h69622.6l20576.7-94145.33h-69904.4l21140.5-98655.65h-135299l-21422.3 98655.65h-86253.1l2536.8-13530.16c6794.8-31002.39 14687.7-46790.97 55529-46790.97l16348.6-77233.23s-28920.1-3522.37-63421.3-2536.86zM2198044 125716.69c-95909.1 2557.15-180038 36097.21-192801 121769.04-16260.2 111329.38 128005.4 135518.4 165177.5 142345.58 81163.1 14198.27 57400.1 82871.13-2818.7 82871.13-86918.8-511.4-63421.4-61730.4-63421.4-61730.4l-276235.4 281.69 136144.6-45099.19c5219.8-1574.88 6671.6-4162.88 9301.8-22550.01 16739.2-103990.76-36275-209651.38-175043-216478.57-98821.4-4929.21-175020.5 38135.63-222961.4 98937.35l23113.6-89917.51c-25141.3 0-46813.5 3622.23-69340.8 10993.31-27755.2 9441.16-49609.1 23642.68-67931.3 46226.78l11556.8-50454.6h-132480.2l-91608.7 408715.35h139808.9l32979.1-145446.62c25312.9-124415.49 94828.8-137673.7 126842.8-137836.06-65926.4 125587.72-28234.4 289967.78 152211.3 295685.28 118895.3 4213.2 207924.7-62447.2 243538.1-137554.38-5244.2 43065.68 8496.4 135611.78 204357.7 139808.68 213688.5 4205.1 230737.5-133510.78 229162.6-162922.06-5211.7-105565.65-98973.4-109555.61-180680.4-127406.96-67037.9-14173.91-52760.7-66803.31 5355.6-66803.31 63904.4 0 48763.9 52428.07 48763.9 52428.07h141218.4c-2630.3-8410.18 37319.9-133232.38-174761.2-135862.59-6481.2-98.23-13055.3-170.48-19449.2 0zm461989.5 563.38c-294377.2-692.46-376747.5 425910.77-83434.4 438312.57 303229.3 12079.5 385041-423839.91 97528-438030.06-4778.9-229.74-9420.9-271.14-14093.6-282.51zm-1554810.3 5356.22c-299318.56-1661.74-364010.56 425865.35-93863.7 431547.05 204758.7 4205.1 251430.5-159756.92 251430.5-162922.92h-154184.3c-4180.8 6827.19-25510.2 60486.72-71595.8 58911.92-100029.17-2094.5-35630.9-227385.88 54965.3-230007.98 48715.7-1055.33 43537.8 59887.64 41435.2 65675.73h152775.1c1566.8-6315.75 10424.8-153984.26-166586.8-162922.11-4868.9-245.97-9624.4-255.71-14375.5-281.69zm2344899.7 10710.8c-70699.1 0-70691 105702.03 0 105702.03s70691-105702.03 0-105702.03zm-2728810.41 564.2l-90763.07 408151.15 148265.09 564.2 90481.14-408715.35H721312.49zm2728810.41 9019.84c59675 0 59675 86253.07 0 86253.07-59179.7 0-59179.7-86253.07 0-86253.07zm-13529.9 15784.51l-8738.1 56092.51h10993.1l3100.6-22549.19h7328.7l8174.3 21139.92h12684.2l-10429.2-21139.92c1055.3 0 14193.8-64.13 15784.9-16348.71 1022.8-13638.14-13248.1-17194.61-13248.1-17194.61H3436593zm9865.6 7328.88h10711.1s8738.1-163.99 8738.1 9301.53c-1047.2 10504.61-11556.8 9019.84-11556.8 9019.84h-10429.3l2536.9-18321.37zm-1668123.2 46226.77c3008.2 120.15 5959.2 520.36 9019.9 1127.59 95840.4 19426.22 26183.6 259445.96-77515 237900.96-90800.6-19330.4-24760.6-242746.56 68495.1-239028.55zm876624.4 282.51c3039.3 133.13 6209.1 503.31 9301.8 1126.77 96368 19426.22 26111.3 260230.97-78642.5 238182.67-91319.7-18827.1-24875.9-243454.46 69340.7-239309.44z" fill="currentColor"/>
</svg>
